<svg width="284" height="284" viewBox="0 0 284 284" fill="none" xmlns="http://www.w3.org/2000/svg">
<path d="M283.635 132.371C278.319 54.1197 210.586 -4.98035 132.358 0.335152C93.3891 2.99054 59.1673 21.1428 35.2831 48.3356L35.2121 48.2883C35.0417 48.506 34.8949 48.7237 34.7482 48.9415C11.0296 76.3047 -2.31831 112.661 0.332337 151.64C0.578469 155.36 1.01393 159.005 1.5488 162.621C1.5488 162.796 1.59613 162.938 1.6198 163.109C1.98426 165.49 2.40079 167.875 2.85992 170.209C3.29513 172.366 3.78122 174.512 4.31778 176.646C20.7234 242.041 81.9866 288.357 151.632 283.619C229.86 278.299 288.984 210.57 283.663 132.323L283.635 132.371ZM252.726 134.482C253.384 144.109 252.774 153.538 251.051 162.626C251.051 162.579 251.004 162.531 251.004 162.479C240.694 137.327 220.332 119.151 202.445 109.111C206.066 66.4879 191.605 48.506 175.228 45.5903C172.055 44.9942 168.793 45.053 165.643 45.7633C162.493 46.4735 159.522 47.8201 156.912 49.7204C154.301 51.6208 152.107 54.0346 150.463 56.8139C148.819 59.5931 147.761 62.679 147.354 65.882C146.955 68.9718 147.169 72.1099 147.985 75.1167C148.8 78.1235 150.201 80.94 152.106 83.4047C154.012 85.8695 156.385 87.9342 159.09 89.4806C161.794 91.0271 164.777 92.0249 167.868 92.4169C169.008 92.5636 170.126 92.611 171.219 92.5873C171.299 94.1086 171.34 95.6316 171.342 97.1549C156.2 93.4156 142.057 92.6583 129.154 93.8274C124.302 94.1457 119.473 94.7543 114.694 95.6498C116.303 81.2605 121.718 65.0773 132.193 53.2677C142.322 41.8226 157.393 35.2859 173.817 36.9615C176.932 37.2786 180.26 38.0549 183.246 39.0536C183.393 39.1009 183.54 39.1483 183.663 39.1719C221.719 54.6782 249.74 90.8123 252.703 134.482H252.726ZM153.748 156.16C153.748 156.16 153.748 156.184 153.725 156.208C150.134 161.367 146.066 166.177 141.574 170.573C134.771 163.387 129.011 155.28 124.463 146.49C124.246 146.026 124.004 145.615 123.782 145.151V145.103C121.117 139.407 118.986 133.476 117.415 127.387C127.497 125.006 137.39 124.13 146.847 124.594L148.352 124.665H148.4C154.33 125.152 160.503 126.246 166.893 127.997C163.926 137.971 159.505 147.453 153.772 156.137L153.748 156.16ZM105.241 37.2549L105.17 37.3496C88.5233 58.8341 82.9806 85.5394 83.2267 106.049C44.4894 124.225 36.1777 145.733 41.815 161.381C41.957 161.821 42.1322 162.233 42.3026 162.65C44.7313 168.451 49.3642 173.051 55.1829 175.439C61.0017 177.826 67.5304 177.806 73.3341 175.382C79.1358 172.954 83.7359 168.321 86.1234 162.502C88.5109 156.683 88.4905 150.155 86.0667 144.351C85.6256 143.32 85.1148 142.321 84.5379 141.359C85.7543 140.555 87.0654 139.759 88.476 138.931C92.7975 153.926 99.1922 166.588 106.652 177.181C109.35 181.19 112.266 185.052 115.446 188.773C102.179 194.581 85.4609 197.984 69.9782 194.822C55.0115 191.764 41.815 181.995 35.0369 166.924C33.7385 163.968 32.761 160.882 32.1212 157.718C31.7216 155 31.4216 152.269 31.2219 149.529C27.7666 98.6649 59.3141 53.3908 105.241 37.2549ZM149.517 252.734C119.313 254.798 91.0746 244.498 69.7368 226.171C96.6646 229.844 122.57 221.286 140.216 210.816C175.327 235.287 198.123 231.737 208.863 219.028C210.967 216.575 212.548 213.718 213.508 210.632C214.468 207.547 214.787 204.297 214.446 201.083C214.104 197.87 213.11 194.76 211.523 191.944C209.936 189.129 207.791 186.668 205.218 184.712C202.74 182.823 199.915 181.441 196.902 180.644C193.89 179.848 190.751 179.653 187.663 180.071C184.575 180.488 181.6 181.51 178.908 183.078C176.216 184.646 173.859 186.729 171.972 189.208C171.295 190.108 170.684 191.083 170.149 192.053C168.862 191.395 167.499 190.666 166.116 189.866C176.01 179.659 184.117 167.862 190.1 154.968C192.242 150.603 194.124 146.116 195.737 141.53C207.405 150.135 218.727 162.891 223.735 177.881C228.572 192.365 226.722 208.695 217.052 222.091C215.141 224.689 212.958 227.076 210.538 229.209L210.444 229.304C192.969 243.069 171.74 251.228 149.545 252.71L149.517 252.734Z" fill="url(#paint0_linear_112_63)"/>
<path style="mix-blend-mode:overlay" opacity="0.9" d="M175.228 45.5672C172.564 45.0613 169.832 45.0293 167.158 45.4725C180.747 52.8564 190.635 73.4416 185.438 114.072C183.717 127.286 179.834 140.127 173.945 152.081C168.87 162.989 162.265 173.118 154.331 182.161C158.092 184.991 162.029 187.58 166.116 189.914C176.011 179.709 184.12 167.913 190.105 155.02C196.008 143.072 199.891 130.229 201.597 117.012C207.798 68.6515 192.585 48.6769 175.233 45.5861L175.228 45.5672Z" fill="url(#paint1_radial_112_63)"/>
<g style="mix-blend-mode:overlay" opacity="0.8">
<path d="M185.433 114.048C190.635 73.4365 180.743 52.8324 167.158 45.4437C166.623 45.5147 166.117 45.6378 165.577 45.7609C178.873 53.4146 188.444 73.9714 183.318 114.048C181.597 127.262 177.714 140.103 171.825 152.057C166.934 162.579 160.612 172.375 153.039 181.167C153.474 181.507 153.891 181.824 154.326 182.137C162.254 173.088 168.857 162.958 173.936 152.052C179.841 140.104 183.726 127.266 185.433 114.048Z" fill="white"/>
</g>
<path style="mix-blend-mode:overlay" opacity="0.5" d="M133.793 206.173C132.505 205.202 131.289 204.18 130.053 203.158C110.003 211.521 82.2234 216.766 54.6188 210.352C59.1143 216.11 64.1689 221.409 69.7086 226.171C96.6363 229.844 122.542 221.286 140.187 210.816C138.019 209.301 135.879 207.745 133.769 206.149L133.793 206.173Z" fill="url(#paint2_radial_112_63)"/>
<path style="mix-blend-mode:overlay" opacity="0.6" d="M130.072 203.158C129.466 202.646 128.837 202.14 128.255 201.629C108.058 209.694 80.1359 214.532 52.6022 207.654C53.2838 208.553 53.9654 209.476 54.6423 210.352C82.228 216.766 110.022 211.521 130.072 203.158Z" fill="url(#paint3_linear_112_63)"/>
<path style="mix-blend-mode:overlay" opacity="0.9" d="M41.839 161.41C41.981 161.845 42.1561 162.262 42.3265 162.674C43.2258 164.813 44.3902 166.73 45.8007 168.458C45.4126 153.004 58.2919 134.118 96.0542 118.323C108.357 113.206 121.42 110.151 134.716 109.282C146.704 108.213 158.783 108.868 170.585 111.227C171.195 106.125 171.437 101.363 171.39 97.1554C157.605 93.6853 143.336 92.5604 129.178 93.8279C115.88 94.6988 102.817 97.7532 90.5115 102.868C45.5357 121.679 35.8371 144.839 41.8437 161.434V161.41H41.839Z" fill="url(#paint4_radial_112_63)"/>
<g style="mix-blend-mode:overlay" opacity="0.8">
<path d="M96.0542 118.346C58.2919 134.146 45.4079 153.027 45.8007 168.482C46.1415 168.893 46.506 169.286 46.8705 169.674C46.8421 154.338 59.8681 135.774 97.124 120.169C109.427 115.052 122.489 111.997 135.786 111.128C147.344 110.106 158.989 110.679 170.391 112.832C170.467 112.299 170.532 111.764 170.585 111.228C158.781 108.882 146.704 108.229 134.716 109.287C121.42 110.159 108.358 113.213 96.0542 118.327V118.346Z" fill="white"/>
</g>
<path style="mix-blend-mode:overlay" opacity="0.4" d="M201.645 116.988C201.456 118.593 201.186 120.145 200.916 121.726C218.169 134.899 236.614 156.355 244.879 183.448C247.61 176.669 249.67 169.638 251.027 162.456C240.747 137.303 220.384 119.146 202.497 109.112C202.279 111.668 202.009 114.266 201.668 116.988H201.645Z" fill="url(#paint5_radial_112_63)"/>
<path style="mix-blend-mode:overlay" opacity="0.5" d="M200.916 121.726C200.769 122.502 200.646 123.306 200.499 124.083C217.587 137.544 235.739 159.299 243.539 186.586C243.998 185.545 244.439 184.494 244.85 183.453C236.591 156.354 218.169 134.922 200.887 121.726H200.916Z" fill="url(#paint6_linear_112_63)"/>
<path style="mix-blend-mode:overlay" opacity="0.9" d="M208.863 219.005C210.619 216.936 212.016 214.587 212.995 212.056C199.799 220.122 177.022 218.399 144.438 193.582C133.846 185.491 124.665 175.703 117.269 164.614C110.349 154.77 104.873 143.985 101.01 132.589C96.2957 134.605 92.0452 136.792 88.4005 138.931C92.296 152.602 98.4558 165.523 106.624 177.157C113.913 188.044 123.001 197.889 133.793 206.125C172.578 235.675 197.489 232.49 208.835 219H208.863V219.005Z" fill="url(#paint7_radial_112_63)"/>
<g style="mix-blend-mode:overlay" opacity="0.8">
<path d="M144.462 193.587C177.022 218.394 199.818 220.122 213.009 212.051C213.203 211.545 213.374 211.034 213.52 210.546C200.253 218.252 177.651 216.231 145.527 191.765C134.934 183.673 125.754 173.885 118.357 162.797C111.693 153.302 106.369 142.933 102.539 131.983C102.027 132.201 101.545 132.395 101.057 132.612C104.919 144.01 110.392 154.796 117.311 164.643C124.601 175.529 133.689 185.375 144.48 193.611L144.457 193.587H144.462Z" fill="white"/>
</g>
<path style="mix-blend-mode:overlay" opacity="0.3" d="M90.4876 102.821C91.9691 102.21 93.4507 101.652 94.9558 101.093C97.7296 79.5615 107.083 52.8562 126.432 32.1764C119.19 33.2177 112.067 34.9217 105.166 37.3262C88.5138 58.8107 82.9758 85.516 83.222 106.03C85.5271 104.942 87.9363 103.867 90.4639 102.826L90.4876 102.821Z" fill="url(#paint8_radial_112_63)"/>
<path style="mix-blend-mode:overlay" opacity="0.4" d="M94.9512 101.093C95.7086 100.828 96.4375 100.535 97.1901 100.27C100.3 78.7331 110.069 52.1508 129.779 31.7361C128.662 31.8591 127.54 32.0059 126.423 32.1526C107.078 52.8561 97.725 79.5377 94.956 101.07V101.093H94.9512Z" fill="url(#paint9_linear_112_63)"/>
<path style="mix-blend-mode:multiply" opacity="0.4" d="M132.359 0.340337C93.3799 2.99099 59.1676 21.1432 35.2786 48.3361L34.7437 48.9419C39.3824 53.5616 54.5952 62.6496 60.7438 66.441C72.9959 53.2414 88.2783 43.2242 105.27 37.2554C106.463 35.6981 107.722 34.1693 109.038 32.6878C125.074 14.5829 146.97 5.03104 172.388 5.03104C175.209 5.03104 180.97 5.49491 181.088 5.49491C165.272 0.945144 148.782 -0.800975 132.363 0.335604L132.359 0.340337Z" fill="url(#paint10_linear_112_63)"/>
<path style="mix-blend-mode:multiply" opacity="0.4" d="M149.517 252.758C119.314 254.822 91.0746 244.522 69.7369 226.199C67.733 225.937 65.739 225.604 63.7587 225.201C40.0638 220.363 20.8182 206.173 8.13292 184.182C6.73612 181.751 5.46282 179.252 4.31787 176.694C20.7235 242.089 81.9867 288.409 151.609 283.666C151.926 276.5 149.81 259.858 149.493 252.758H149.517Z" fill="url(#paint11_linear_112_63)"/>
<path style="mix-blend-mode:multiply" opacity="0.4" d="M283.64 132.371C279.266 131.931 257.976 133.611 252.731 134.482C253.384 144.11 252.779 153.539 251.051 162.626C251.78 164.425 252.485 166.271 253.115 168.141C260.773 191.083 258.099 214.825 245.414 236.84C244.009 239.265 242.485 241.619 240.846 243.893C240.846 243.893 240.917 243.841 240.941 243.793C269.79 215.725 286.579 175.676 283.64 132.395V132.371Z" fill="url(#paint12_linear_112_63)"/>
<path style="mix-blend-mode:multiply" opacity="0.5" d="M173.846 36.9379C176.956 37.255 180.283 38.0313 183.275 39.03C183.417 39.0774 183.568 39.1247 183.686 39.1484C195.877 44.1238 207.091 51.2162 216.81 60.098C216.81 60.098 216.857 60.1217 216.881 60.1453C221.548 54.8251 230.513 48.97 230.513 48.97C230.513 48.97 216.786 34.9215 195.766 30.548C181.064 27.4855 147.893 24.5461 126.967 60.1453L127.161 59.956C128.719 57.6177 130.347 55.3363 132.216 53.2442C142.35 41.799 157.417 35.2576 173.846 36.9379Z" fill="url(#paint13_linear_112_63)"/>
<path style="mix-blend-mode:multiply" opacity="0.5" d="M217.052 222.114C215.141 224.713 212.958 227.1 210.539 229.233C210.444 229.328 210.321 229.427 210.221 229.527C199.817 237.59 188.07 243.751 175.522 247.726C175.498 247.726 175.474 247.726 175.446 247.75C177.732 254.457 178.314 265.15 178.314 265.15C178.314 265.15 197.342 260.293 211.637 244.276C221.624 233.072 240.77 205.808 220.403 169.892C220.403 169.892 220.431 170.01 220.478 170.157C221.742 172.666 222.883 175.236 223.759 177.886C228.596 192.37 226.745 208.7 217.075 222.091L217.052 222.114Z" fill="url(#paint14_linear_112_63)"/>
<path style="mix-blend-mode:multiply" opacity="0.5" d="M35.089 166.976C33.7886 164.019 32.8095 160.931 32.1686 157.765C32.1449 157.623 32.0976 157.472 32.0739 157.325C30.2752 144.228 30.8574 130.96 33.6548 118.18V118.105C26.7016 116.741 17.1545 111.885 17.1545 111.885C17.1545 111.885 11.8532 130.818 18.5887 151.181C23.3031 165.442 37.3231 195.65 78.607 195.968C78.607 195.968 78.4887 195.939 78.342 195.892C75.5493 195.721 72.7567 195.433 70.0114 194.874C55.0399 191.812 41.8434 182.042 35.0606 166.976H35.089Z" fill="url(#paint15_linear_112_63)"/>
<path style="mix-blend-mode:multiply" opacity="0.6" d="M167.868 92.3981C169.009 92.5401 170.126 92.5874 171.219 92.5638C171.219 92.5638 170.467 77.8148 168.668 70.232C166.846 62.673 164.171 57.6414 161.256 54.8015C159.145 52.7614 152.508 50.2291 147.359 65.8301C146.959 68.9199 147.173 72.0582 147.988 75.0652C148.803 78.0723 150.203 80.8891 152.108 83.3543C154.013 85.8195 156.386 87.8848 159.09 89.4318C161.794 90.9788 164.777 91.9771 167.868 92.3697V92.3934V92.3981Z" fill="url(#paint16_linear_112_63)"/>
<path style="mix-blend-mode:multiply" opacity="0.5" d="M86.1001 144.398C85.6572 143.369 85.1448 142.371 84.5665 141.412C84.5665 141.412 72.1463 149.43 66.5089 154.774C60.8716 160.122 57.8565 164.96 56.8625 168.917C56.1572 171.762 57.2743 178.762 73.3628 175.43C79.1645 173.001 83.7645 168.368 86.152 162.55C88.5395 156.731 88.5192 150.202 86.0954 144.398H86.1001Z" fill="url(#paint17_linear_112_63)"/>
<path style="mix-blend-mode:multiply" opacity="0.6" d="M172 189.185C171.318 190.084 170.713 191.059 170.178 192.025C170.178 192.025 183.327 198.76 190.787 200.971C198.246 203.186 203.931 203.38 207.845 202.258C210.666 201.458 216.157 196.962 205.242 184.717C202.764 182.829 199.939 181.447 196.927 180.651C193.916 179.855 190.776 179.66 187.689 180.078C184.602 180.496 181.628 181.517 178.936 183.085C176.244 184.652 173.887 186.735 172 189.213V189.185Z" fill="url(#paint18_linear_112_63)"/>
<path style="mix-blend-mode:multiply" opacity="0.3" d="M166.898 128.021C163.916 137.938 159.731 146.954 154.605 154.897C154.335 155.309 154.07 155.725 153.777 156.161C153.777 156.161 153.777 156.184 153.753 156.208C150.163 161.367 146.095 166.177 141.603 170.574C144.859 174.024 148.357 177.375 152.224 180.561C156.616 184.015 161.261 187.134 166.121 189.89C176.016 179.685 184.125 167.89 190.11 154.996C192.25 150.63 194.131 146.142 195.742 141.554C190.739 137.885 185.684 134.946 181.022 132.953C176.426 130.984 171.698 129.336 166.874 128.021H166.902H166.898Z" fill="url(#paint19_linear_112_63)"/>
<path style="mix-blend-mode:multiply" opacity="0.3" d="M69.7417 226.199C96.6648 229.868 122.57 221.315 140.216 210.84C138.047 209.325 135.907 207.769 133.798 206.173C127.087 201.039 120.931 195.217 115.432 188.802C102.16 194.605 85.4421 198.008 69.9594 194.846C54.9927 191.788 41.7963 182.019 35.0134 166.953C33.7147 163.995 32.7372 160.907 32.0977 157.742C36.0122 185.199 49.8618 209.159 69.718 226.195L69.7417 226.199Z" fill="url(#paint20_linear_112_63)"/>
<path style="mix-blend-mode:multiply" opacity="0.3" d="M141.598 170.569C134.797 163.383 129.038 155.278 124.492 146.49C124.274 146.027 124.028 145.615 123.81 145.151V145.104C121.145 139.407 119.014 133.476 117.444 127.387C112.824 128.48 108.186 129.843 103.519 131.595C98.3376 133.665 93.3176 136.117 88.4999 138.931C92.8261 153.926 99.2161 166.588 106.676 177.181C109.374 181.19 112.294 185.053 115.48 188.773C121.16 186.293 126.243 183.353 130.295 180.315C134.286 177.317 138.071 174.053 141.622 170.545L141.598 170.569Z" fill="url(#paint21_linear_112_63)"/>
<path style="mix-blend-mode:multiply" opacity="0.3" d="M105.175 37.3498C88.5281 58.8343 82.9854 85.5396 83.2316 106.049C85.6307 104.923 88.0531 103.846 90.4972 102.821C98.2868 99.567 106.399 97.1474 114.699 95.6026C116.308 81.2134 121.723 65.0302 132.198 53.2206C142.327 41.7755 157.398 35.2341 173.827 36.9144C176.937 37.2315 180.264 38.0078 183.256 39.0065C183.398 39.0538 183.545 39.1012 183.668 39.1248C168.074 32.7618 151.228 30.0608 134.427 31.2297C124.222 31.9349 114.452 33.9987 105.218 37.2552C105.194 37.2788 105.17 37.3262 105.147 37.3498H105.175Z" fill="url(#paint22_linear_112_63)"/>
<path style="mix-blend-mode:multiply" opacity="0.3" d="M251.027 162.432C240.728 137.28 220.36 119.099 202.473 109.064C202.255 111.62 201.99 114.243 201.621 116.988C200.537 125.359 198.574 133.593 195.766 141.554C207.434 150.159 218.756 162.915 223.763 177.91C228.596 192.394 226.75 208.724 217.08 222.115C215.17 224.713 212.986 227.1 210.567 229.233L210.472 229.328C231.323 212.951 246.067 189.332 251.127 162.603C251.127 162.555 251.079 162.503 251.079 162.456L251.027 162.432Z" fill="url(#paint23_linear_112_63)"/>
<path style="mix-blend-mode:multiply" opacity="0.3" d="M114.623 112.709C115.217 117.659 116.151 122.563 117.415 127.387C127.502 125.006 137.39 124.13 146.847 124.594L148.352 124.665H148.4C154.331 125.152 160.503 126.246 166.897 127.997C168.256 123.453 169.401 118.734 170.225 113.826C171.124 107.705 171.389 102.04 171.366 97.1076C156.229 93.3683 142.085 92.611 129.182 93.7801C124.33 94.0982 119.502 94.7067 114.722 95.6024C114.041 101.775 114.012 107.63 114.646 112.69L114.623 112.709Z" fill="url(#paint24_linear_112_63)"/>
<defs>
<linearGradient id="paint0_linear_112_63" x1="45.0952" y1="238.908" x2="226.139" y2="57.8401" gradientUnits="userSpaceOnUse">
<stop stop-color="#E6007A"/>
<stop offset="0.21" stop-color="#703AC2"/>
<stop offset="0.46" stop-color="#0070EB"/>
<stop offset="0.77" stop-color="#0297FB"/>
<stop offset="1" stop-color="#0AE2FF"/>
</linearGradient>
<radialGradient id="paint1_radial_112_63" cx="0" cy="0" r="1" gradientUnits="userSpaceOnUse" gradientTransform="translate(182.47 113.244) scale(53.9976 53.9976)">
<stop stop-color="white"/>
<stop offset="1" stop-color="white" stop-opacity="0"/>
</radialGradient>
<radialGradient id="paint2_radial_112_63" cx="0" cy="0" r="1" gradientUnits="userSpaceOnUse" gradientTransform="translate(102.667 213.415) scale(31.4215 31.4216)">
<stop stop-color="white"/>
<stop offset="1" stop-color="white" stop-opacity="0"/>
</radialGradient>
<linearGradient id="paint3_linear_112_63" x1="55.518" y1="208.094" x2="85.8016" y2="207.678" gradientUnits="userSpaceOnUse">
<stop stop-color="white" stop-opacity="0"/>
<stop offset="1" stop-color="white"/>
</linearGradient>
<radialGradient id="paint4_radial_112_63" cx="0" cy="0" r="1" gradientUnits="userSpaceOnUse" gradientTransform="translate(96.8647 121.305) rotate(-120) scale(53.9976 53.9976)">
<stop stop-color="white"/>
<stop offset="1" stop-color="white" stop-opacity="0"/>
</radialGradient>
<radialGradient id="paint5_radial_112_63" cx="0" cy="0" r="1" gradientUnits="userSpaceOnUse" gradientTransform="translate(223.521 140.337) rotate(-120) scale(31.4215 31.4215)">
<stop stop-color="white"/>
<stop offset="1" stop-color="white" stop-opacity="0"/>
</radialGradient>
<linearGradient id="paint6_linear_112_63" x1="242.474" y1="183.808" x2="226.973" y2="157.793" gradientUnits="userSpaceOnUse">
<stop stop-color="white" stop-opacity="0"/>
<stop offset="1" stop-color="white"/>
</linearGradient>
<radialGradient id="paint7_radial_112_63" cx="0" cy="0" r="1" gradientUnits="userSpaceOnUse" gradientTransform="translate(144.086 188.915) rotate(120) scale(53.9976 53.9976)">
<stop stop-color="white"/>
<stop offset="1" stop-color="white" stop-opacity="0"/>
</radialGradient>
<radialGradient id="paint8_radial_112_63" cx="0" cy="0" r="1" gradientUnits="userSpaceOnUse" gradientTransform="translate(99.7905 72.2347) rotate(120) scale(31.4215 31.4215)">
<stop stop-color="white"/>
<stop offset="1" stop-color="white" stop-opacity="0"/>
</radialGradient>
<linearGradient id="paint9_linear_112_63" x1="127.952" y1="34.0507" x2="113.189" y2="60.4957" gradientUnits="userSpaceOnUse">
<stop stop-color="white" stop-opacity="0"/>
<stop offset="1" stop-color="white"/>
</linearGradient>
<linearGradient id="paint10_linear_112_63" x1="134.55" y1="20.6084" x2="88.2774" y2="34.0699" gradientUnits="userSpaceOnUse">
<stop stop-color="#231F20"/>
<stop offset="1" stop-color="white"/>
</linearGradient>
<linearGradient id="paint11_linear_112_63" x1="47.1354" y1="197.037" x2="85.8254" y2="237.422" gradientUnits="userSpaceOnUse">
<stop stop-color="#231F20"/>
<stop offset="1" stop-color="white"/>
</linearGradient>
<linearGradient id="paint12_linear_112_63" x1="254.771" y1="190.96" x2="268.233" y2="150.036" gradientUnits="userSpaceOnUse">
<stop stop-color="#231F20"/>
<stop offset="1" stop-color="white"/>
</linearGradient>
<linearGradient id="paint13_linear_112_63" x1="155.618" y1="44.0331" x2="217.638" y2="58.2283" gradientUnits="userSpaceOnUse">
<stop stop-color="#231F20"/>
<stop offset="1" stop-color="white"/>
</linearGradient>
<linearGradient id="paint14_linear_112_63" x1="220.034" y1="202.779" x2="176.7" y2="249.402" gradientUnits="userSpaceOnUse">
<stop stop-color="#231F20"/>
<stop offset="1" stop-color="white"/>
</linearGradient>
<linearGradient id="paint15_linear_112_63" x1="50.3303" y1="179.212" x2="31.6337" y2="118.393" gradientUnits="userSpaceOnUse">
<stop stop-color="#231F20"/>
<stop offset="1" stop-color="white"/>
</linearGradient>
<linearGradient id="paint16_linear_112_63" x1="169.179" y1="66.8998" x2="149.569" y2="86.5383" gradientUnits="userSpaceOnUse">
<stop stop-color="#231F20"/>
<stop offset="1" stop-color="white"/>
</linearGradient>
<linearGradient id="paint17_linear_112_63" x1="63.3755" y1="155.971" x2="90.1755" y2="163.171" gradientUnits="userSpaceOnUse">
<stop stop-color="#231F20"/>
<stop offset="1" stop-color="white"/>
</linearGradient>
<linearGradient id="paint18_linear_112_63" x1="193.409" y1="203.077" x2="186.228" y2="176.287" gradientUnits="userSpaceOnUse">
<stop stop-color="#231F20"/>
<stop offset="1" stop-color="white"/>
</linearGradient>
<linearGradient id="paint19_linear_112_63" x1="152.612" y1="179.245" x2="164.398" y2="162.991" gradientUnits="userSpaceOnUse">
<stop stop-color="#231F20"/>
<stop offset="1" stop-color="white"/>
</linearGradient>
<linearGradient id="paint20_linear_112_63" x1="112.076" y1="172.202" x2="88.5282" y2="183.429" gradientUnits="userSpaceOnUse">
<stop stop-color="#231F20"/>
<stop offset="1" stop-color="white"/>
</linearGradient>
<linearGradient id="paint21_linear_112_63" x1="103.519" y1="133" x2="110.808" y2="148.142" gradientUnits="userSpaceOnUse">
<stop stop-color="#231F20"/>
<stop offset="1" stop-color="white"/>
</linearGradient>
<linearGradient id="paint22_linear_112_63" x1="137.423" y1="86.2449" x2="132.392" y2="68.8689" gradientUnits="userSpaceOnUse">
<stop stop-color="#231F20"/>
<stop offset="1" stop-color="white"/>
</linearGradient>
<linearGradient id="paint23_linear_112_63" x1="191.809" y1="165.831" x2="206.388" y2="169.187" gradientUnits="userSpaceOnUse">
<stop stop-color="#231F20"/>
<stop offset="1" stop-color="white"/>
</linearGradient>
<linearGradient id="paint24_linear_112_63" x1="168.937" y1="116.576" x2="150.444" y2="113.22" gradientUnits="userSpaceOnUse">
<stop stop-color="#231F20"/>
<stop offset="1" stop-color="white"/>
</linearGradient>
</defs>
</svg>
