<svg width="182" height="182" viewBox="0 0 182 182" fill="none" xmlns="http://www.w3.org/2000/svg">
<rect width="182" height="182" rx="84" fill="black"/>
<path d="M43.2825 66.6715L18.7614 54.1939C16.8434 57.96 15.2099 61.9089 13.91 65.9307L40.0933 74.3922C40.949 71.747 42.0195 69.149 43.2825 66.6715Z" fill="white"/>
<path d="M64.112 44.6808L77.6939 68.0689C79.6775 66.9193 81.8005 66.0352 84.0089 65.4418L76.9798 39.3269C78.7685 38.8461 80.5864 38.4492 82.4146 38.1608L78.0951 10.9982C73.9172 11.6611 69.766 12.6615 65.7537 13.9688L74.1528 39.6952C71.4812 40.5667 68.8796 41.6489 66.374 42.9296L54.0285 18.8461C50.2743 20.7691 46.643 23.0032 43.2306 25.493L59.4529 47.7068C60.9472 46.6183 62.511 45.6117 64.112 44.6808Z" fill="white"/>
<path d="M136.995 64.0585L113.602 77.6451C114.754 79.6252 115.638 81.7488 116.234 83.9525L142.362 76.9145C142.843 78.7026 143.24 80.5173 143.531 82.3422L170.705 78.0172C170.04 73.844 169.037 69.6929 167.725 65.6812L141.988 74.0913C141.114 71.4217 140.031 68.8234 138.747 66.3193L162.836 53.9647C160.912 50.2167 158.673 46.5873 156.182 43.1789L133.961 59.4026C135.052 60.896 136.064 62.4567 136.995 64.0585Z" fill="white"/>
<path d="M127.455 18.736C123.683 16.8211 119.732 15.1905 115.712 13.8935L107.26 40.0659C109.904 40.919 112.504 41.991 114.987 43.2512L127.455 18.736Z" fill="white"/>
<path d="M117.685 44.2016L103.947 68.0295C105.937 69.1752 107.771 70.5788 109.403 72.2027L147.931 33.5653C144.943 30.5886 141.696 27.8247 138.282 25.3492L122.391 47.2519C120.876 46.1554 119.306 45.1366 117.685 44.2016Z" fill="white"/>
<path d="M44.2381 63.9722L68.0733 77.7163C69.2196 75.7299 70.628 73.8949 72.2556 72.262L33.6121 33.7412C30.6317 36.7281 27.8641 39.9707 25.3872 43.3811L47.2943 59.2733C46.1971 60.7849 45.1736 62.3523 44.2381 63.9722Z" fill="white"/>
<path d="M99.198 37.6986L103.355 10.9616C99.2472 10.3232 95.0428 10 90.8566 10H90.7932V64.5502H90.8566C93.1575 64.5502 95.4337 64.8449 97.6241 65.4259L104.682 38.8442C102.876 38.3655 101.047 37.9871 99.198 37.6986Z" fill="white"/>
<path d="M65.4598 84.0308L38.8669 76.9583C38.3859 78.7628 38.0051 80.5917 37.7165 82.4391L10.9682 78.2717C10.3255 82.3922 10 86.6106 10 90.8068H64.5813C64.5813 88.5031 64.8767 86.222 65.4598 84.0308Z" fill="white"/>
<path d="M138.431 114.95L162.952 127.428C164.87 123.661 166.504 119.713 167.804 115.691L141.62 107.229C140.765 109.874 139.694 112.472 138.431 114.95Z" fill="white"/>
<path d="M117.601 136.935L104.019 113.547C102.035 114.696 99.9126 115.58 97.7037 116.174L104.733 142.289C102.942 142.77 101.126 143.166 99.2985 143.455L103.615 170.615C107.794 169.952 111.945 168.952 115.957 167.645L107.558 141.918C110.231 141.047 112.831 139.965 115.337 138.684L127.682 162.767C131.436 160.844 135.068 158.61 138.48 156.121L122.258 133.907C120.763 134.995 119.202 136.004 117.601 136.935Z" fill="white"/>
<path d="M44.72 117.564L68.1154 103.978C66.9629 101.997 66.0783 99.8736 65.4828 97.6704L39.3548 104.708C38.8737 102.92 38.4766 101.105 38.186 99.2802L11.0099 103.605C11.6751 107.779 12.6782 111.93 13.9903 115.942L39.7274 107.531C40.6014 110.201 41.6843 112.799 42.9678 115.304L18.8786 127.658C20.8027 131.406 23.0422 135.036 25.5334 138.444L47.7537 122.22C46.6626 120.727 45.6514 119.166 44.72 117.564Z" fill="white"/>
<path d="M54.2583 162.883C58.0308 164.799 61.9815 166.429 66.0021 167.726L74.4543 141.554C71.8093 140.7 69.2099 139.628 66.7265 138.368L54.2583 162.883Z" fill="white"/>
<path d="M64.0288 137.421L77.7666 113.593C75.7768 112.448 73.9425 111.044 72.3109 109.42L33.7823 148.057C36.771 151.034 40.0176 153.798 43.4319 156.274L59.3228 134.371C60.8379 135.467 62.4074 136.486 64.0288 137.421Z" fill="white"/>
<path d="M137.475 117.65L113.639 103.906C112.493 105.892 111.085 107.728 109.458 109.36L148.099 147.883C151.079 144.896 153.847 141.654 156.324 138.243L134.416 122.351C135.514 120.839 136.539 119.27 137.475 117.65Z" fill="white"/>
<path d="M84.0895 116.191L77.0316 142.773C78.8371 143.251 80.667 143.63 82.5155 143.919L78.3603 170.655C82.4686 171.294 86.673 171.617 90.8592 171.617H90.9225V117.067H90.8592C88.5582 117.067 86.2798 116.772 84.0895 116.191Z" fill="white"/>
<path d="M117.133 90.8125C117.133 93.1162 116.836 95.3951 116.252 97.5881L142.845 104.661C143.326 102.856 143.707 101.027 143.995 99.1798L170.746 103.349C171.389 99.2289 171.714 95.0105 171.714 90.8143L117.133 90.8125Z" fill="white"/>
</svg>
