<svg width="32" height="32" viewBox="0 0 32 32" fill="none" xmlns="http://www.w3.org/2000/svg">
<g clip-path="url(#clip0_624_2483)">
<path d="M16 32C24.8365 32 32 24.8365 32 16C32 7.16344 24.8365 0 16 0C7.16344 0 0 7.16344 0 16C0 24.8365 7.16344 32 16 32Z" fill="white"/>
<path fill-rule="evenodd" clip-rule="evenodd" d="M9.57934 24.6054C6.96088 22.649 5.26195 19.5218 5.26195 16C5.26195 10.0717 10.0717 5.26195 16 5.26195C20.8946 5.26195 26.2392 8.18696 27.5304 12.6674C26.0859 7.66195 21.4718 4 16 4C9.37392 4 4 9.37392 4 16C4 22.6261 9.37392 28 16 28C22.6261 28 28 22.6261 28 16V15.3674H27.3413C27.3218 15.3674 27.2923 15.3674 27.2533 15.3674C27.175 15.3674 27.0642 15.3641 26.9206 15.3576C26.637 15.3478 26.2456 15.3282 25.8054 15.2892C24.9054 15.2108 23.8782 15.0576 23.1805 14.7772C22.0554 14.3272 21.4195 13.7337 20.6957 13.0359L20.6533 12.9968C19.9261 12.2989 19.1109 11.5131 17.6923 10.8478C16.2968 10.1924 14.7543 10.2967 13.6228 10.5315C13.0489 10.6489 12.5532 10.8054 12.2043 10.9326C12.0282 10.9946 11.888 11.0533 11.7903 11.0924C11.2196 11.3337 10.6652 11.6174 10.1076 11.8815C10.1076 11.8815 11.2065 12.1815 11.7478 12.3511C11.7674 12.3576 11.7968 12.3674 11.8392 12.3804C11.9207 12.4065 12.038 12.4489 12.1782 12.5076C12.4652 12.625 12.8403 12.7978 13.212 13.0392C13.7989 13.4141 14.2848 13.8903 14.4837 14.4707C13.2413 14.6337 12.0739 15.1815 11.2 15.6935C10.6717 16.0032 10.2315 16.3163 9.92174 16.5478C9.76848 16.6653 9.64456 16.763 9.55978 16.8315C9.48805 16.8902 8.3663 17.8782 8.3663 17.8782C8.3663 17.8782 9.81413 18.0315 10.5283 18.175C11.0044 18.2696 11.6435 18.4261 12.3152 18.6576C12.9869 18.8923 13.6652 19.1989 14.2293 19.5934C14.7935 19.988 15.2076 20.4413 15.4097 20.963C16.0032 22.4826 15.4196 23.9597 14.2489 24.7912C13.0913 25.6131 11.3337 25.8088 9.57608 24.6022L9.57934 24.6054ZM13.675 26.4837C14.1478 26.3304 14.588 26.1054 14.9859 25.825C16.5773 24.6934 17.4152 22.6195 16.5902 20.5066C16.2642 19.675 15.6446 19.0424 14.9565 18.5597C14.2652 18.0773 13.4728 17.725 12.7359 17.4674C12.2532 17.2978 11.7837 17.1674 11.3761 17.0696C11.5228 16.975 11.6761 16.8773 11.8424 16.7794C12.8141 16.2088 14.0403 15.6837 15.2141 15.6837C16.9848 15.6837 18.3022 16.2282 19.5608 16.8088C19.675 16.8608 19.7891 16.9163 19.9066 16.9685C21.0315 17.4968 22.212 18.051 23.5848 18.051C24.9576 18.051 25.9522 17.6762 26.6662 17.2848C26.0304 22.6066 21.5011 26.7347 16.0066 26.7347C15.2076 26.7347 14.4282 26.6467 13.6815 26.4837H13.675ZM25.2968 16.512C24.8238 16.6718 24.2499 16.7891 23.5816 16.7891C22.5054 16.7891 21.5794 16.3587 20.4054 15.8108C20.3011 15.762 20.1968 15.7131 20.0891 15.6641C18.912 15.1196 17.5522 14.5424 15.7815 14.438C15.5435 13.2674 14.6565 12.4652 13.8935 11.9761C13.8087 11.9207 13.7239 11.8685 13.6392 11.8196C13.7141 11.8032 13.7924 11.7837 13.8739 11.7674C14.8978 11.5554 16.1174 11.5032 17.151 11.9924C18.3771 12.5696 19.0718 13.2348 19.7923 13.9261L19.8184 13.9489C20.5587 14.6597 21.3446 15.4065 22.7109 15.9543C23.4707 16.2576 24.4554 16.4206 25.2968 16.512Z" fill="url(#paint0_linear_624_2483)"/>
</g>
<defs>
<linearGradient id="paint0_linear_624_2483" x1="3.78478" y1="16.2218" x2="28.2152" y2="15.775" gradientUnits="userSpaceOnUse">
<stop stop-color="#29CCB9"/>
<stop offset="0.49" stop-color="#0091FF"/>
<stop offset="1" stop-color="#FF66B7"/>
</linearGradient>
<clipPath id="clip0_624_2483">
<rect width="32" height="32" fill="white"/>
</clipPath>
</defs>
</svg>
