<svg width="735" height="718" viewBox="0 0 735 718" fill="none" xmlns="http://www.w3.org/2000/svg">
<path d="M734.201 359C734.201 556.777 570.168 717.469 367.365 717.469C164.565 717.469 0.530762 556.777 0.530762 359C0.530762 161.224 164.565 0.530762 367.365 0.530762C570.168 0.530762 734.201 161.224 734.201 359Z" fill="white"/>
<path d="M417.135 192.263H195.829V408.227H417.135V192.263Z" fill="black"/>
<path d="M538.895 309.773H317.589V525.737H538.895V309.773Z" fill="black"/>
<path d="M417.153 309.773H317.23V407.051H417.153V309.773Z" fill="white"/>
<path d="M734.201 359C734.201 556.777 570.168 717.469 367.365 717.469C164.565 717.469 0.530762 556.777 0.530762 359C0.530762 161.224 164.565 0.530762 367.365 0.530762C570.168 0.530762 734.201 161.224 734.201 359Z" stroke="black" stroke-width="0.828761"/>
<path d="M417.135 192.263H195.829V408.227H417.135V192.263Z" stroke="black" stroke-width="0.828761"/>
<path d="M538.895 309.773H317.589V525.737H538.895V309.773Z" stroke="black" stroke-width="0.828761"/>
<path d="M417.153 309.773H317.23V407.051H417.153V309.773Z" stroke="black" stroke-width="0.828761"/>
</svg>
