<svg width="32" height="32" viewBox="0 0 32 32" fill="none" xmlns="http://www.w3.org/2000/svg">
<path d="M16 32C24.8366 32 32 24.8366 32 16C32 7.16344 24.8366 0 16 0C7.16344 0 0 7.16344 0 16C0 24.8366 7.16344 32 16 32Z" fill="#FFEBD2"/>
<path d="M24.3705 19.5468V7.98613C24.3551 7.01881 23.6028 6.24023 22.6585 6.24023H10.882C8.3409 6.27956 6.29883 8.41081 6.29883 11.0218C6.29883 11.9026 6.52914 12.6576 6.88228 13.3182C7.18168 13.8687 7.64998 14.3878 8.1106 14.7732C8.2411 14.8832 8.1797 14.8361 8.57889 15.0877C9.13164 15.4337 9.76115 15.6067 9.76115 15.6067L9.75347 22.5196C9.76883 22.8499 9.79954 23.1644 9.88398 23.4554C10.145 24.4306 10.8052 25.1777 11.7034 25.5395C12.0796 25.6889 12.5018 25.7911 12.9548 25.7991L22.3591 25.8305C24.2322 25.8305 25.7523 24.2734 25.7523 22.3465C25.76 21.2062 25.2073 20.1838 24.3705 19.5468Z" fill="#FFEEDA"/>
<path d="M24.6001 22.4336C24.5617 23.6683 23.5714 24.6592 22.3584 24.6592L15.8867 24.6356C16.401 24.0222 16.7158 23.2279 16.7158 22.3628C16.7158 21.0023 15.9251 20.0664 15.9251 20.0664H22.366C23.6021 20.0664 24.6077 21.0966 24.6077 22.3628L24.6001 22.4336Z" fill="#EBC28E"/>
<path d="M8.72476 13.7979C7.98009 13.0744 7.45805 12.1385 7.45805 11.0296V10.9116C7.51947 9.01632 9.03951 7.49062 10.8897 7.43557H22.6662C22.9733 7.4513 23.2189 7.67151 23.2189 7.99394V18.2019C23.4876 18.2492 23.6181 18.2885 23.8791 18.3829C24.0864 18.4615 24.3705 18.6266 24.3705 18.6266V7.99394C24.3551 7.02662 23.6028 6.24805 22.6585 6.24805H10.882C8.3409 6.28737 6.29883 8.41862 6.29883 11.0296C6.29883 12.5474 6.9744 13.8451 8.07989 14.7573C8.15666 14.8203 8.22575 14.8989 8.42536 14.8989C8.77082 14.8989 9.01648 14.6158 9.00113 14.3091C8.99345 14.0495 8.88598 13.9552 8.72476 13.7979Z" fill="#101010"/>
<path d="M22.3593 18.8699H13.1239C12.5021 18.8777 12.0031 19.389 12.0031 20.026V21.3865C12.0184 22.0157 12.5405 22.5504 13.1623 22.5504H13.8455V21.3865H13.1623V20.0574C13.1623 20.0574 13.3312 20.0574 13.5385 20.0574C14.7054 20.0574 15.5652 21.1663 15.5652 22.3538C15.5652 23.4077 14.6286 24.7524 13.0625 24.6424C11.6729 24.548 10.9206 23.2818 10.9206 22.3538V10.8246C10.9206 10.3055 10.506 9.88086 9.99937 9.88086H9.07812V11.0605H9.76138V22.3617C9.723 24.6581 11.3582 25.8142 13.0625 25.8142L22.367 25.8456C24.2402 25.8456 25.7602 24.2885 25.7602 22.3617C25.7602 20.4349 24.2325 18.8699 22.3593 18.8699ZM24.601 22.4325C24.5626 23.6672 23.5722 24.6581 22.3593 24.6581L15.8876 24.6345C16.402 24.0211 16.7168 23.2267 16.7168 22.3617C16.7168 21.0012 15.926 20.0653 15.926 20.0653H22.367C23.603 20.0653 24.6087 21.0955 24.6087 22.3617L24.601 22.4325Z" fill="#101010"/>
<path d="M19.8712 11.2734H12.9082V10.0938H19.8712C20.186 10.0938 20.447 10.3533 20.447 10.6836C20.447 11.006 20.1937 11.2734 19.8712 11.2734Z" fill="#101010"/>
<path d="M19.8712 16.8262H12.9082V15.6465H19.8712C20.186 15.6465 20.447 15.9061 20.447 16.2364C20.447 16.5588 20.1937 16.8262 19.8712 16.8262Z" fill="#101010"/>
<path d="M21.0996 14.0488H12.9082V12.8691H21.0918C21.4067 12.8691 21.6677 13.1287 21.6677 13.459C21.6753 13.7814 21.4143 14.0488 21.0996 14.0488Z" fill="#101010"/>
</svg>
