<svg width="100%" style="" viewBox="0 0 31 30" fill="none" xmlns="http://www.w3.org/2000/svg">
<rect x="0.5" width="30" height="30" rx="15" fill="black"></rect>
<path d="M23.6249 9.83935C23.1249 8.97768 22.2295 8.46162 21.2294 8.46162H15.7143C15.6429 8.45688 15.5714 8.45215 15.5 8.45215C15.4286 8.45215 15.3571 8.45688 15.2857 8.46162H9.77063C8.77049 8.46162 7.87512 8.97768 7.37505 9.83935C6.87498 10.701 6.87498 11.7284 7.37505 12.5901L13.1044 22.452C13.6045 23.3137 14.4999 23.8297 15.5 23.8297C16.5001 23.8297 17.3955 23.3137 17.8956 22.452L23.6249 12.5901C24.125 11.7331 24.125 10.701 23.6249 9.83935ZM16.5716 21.6945C16.3477 22.078 15.9477 22.31 15.5 22.31C15.0523 22.31 14.6523 22.078 14.4284 21.6945L11.2042 16.1457L14.4284 10.5921C14.6285 10.2465 14.9666 10.0287 15.3571 9.98612H15.6429C16.0334 10.0287 16.3716 10.2512 16.5716 10.5921L19.7958 16.1409L16.5716 21.6945Z" fill="white"></path>
</svg>
