<svg width="230" height="52" viewBox="0 0 230 52" fill="none" xmlns="http://www.w3.org/2000/svg">
<g clip-path="url(#clip0_2025_65)">
<path d="M35.936 14.2169C36.5221 14.0974 36.8983 13.523 36.7737 12.938V12.938C35.1582 5.35752 24 6.53332 24 14.284V27.183C24 31.5002 20.4625 35 16.1453 35V35C6.20062 35 4.35886 20.655 14.1031 18.6683L35.936 14.2169Z" fill="white"/>
<path d="M13.064 37.7831C12.4779 37.9026 12.1017 38.477 12.2263 39.062V39.062C13.8418 46.6425 25 45.4667 25 37.716V24.817C25 20.4998 28.5375 17 32.8547 17V17C42.7994 17 44.6411 31.345 34.8969 33.3317L13.064 37.7831Z" fill="white"/>
<path d="M77.4647 24.1917L84.2257 9H95.9526V42.6072H86.5571V27.8562L77.4647 42.468L68.3955 27.8562V42.6072H59V9H69.5612L77.4647 24.1917Z" fill="white"/>
<path d="M98.0966 42.6072V9H107.492V42.6072H98.0966Z" fill="white"/>
<path d="M131.505 26.4646V9H140.9V42.6072H131.505L119.032 25.1194V42.6072H109.636V9H118.985L131.505 26.4646Z" fill="white"/>
<path d="M143.044 9H169.785V18.3237H161.112V42.6072H151.717V18.3237H143.044V9Z" fill="white"/>
<path d="M181.325 9V33.2603H197.574V42.6072H171.929V9H181.325Z" fill="white"/>
<path d="M204.498 20.5039L211.445 9H222.38L209.977 29.5725L209.207 30.8713V42.6072H199.812V30.8713L199.042 29.5725L186.639 9H197.573L204.498 20.5039Z" fill="white"/>
</g>
<defs>
<clipPath id="clip0_2025_65">
<rect width="230" height="52" fill="white"/>
</clipPath>
</defs>
</svg>
