<svg width="1571" height="5189" viewBox="0 0 1571 5189" fill="none" xmlns="http://www.w3.org/2000/svg">
<line x1="8.5" y1="5189" x2="0.664918" y2="0.00174865" stroke="#B5B4B6" stroke-opacity="0.56"/>
<line x1="840.335" y1="5196" x2="832.5" y2="7.00175" stroke="#B5B4B6" stroke-opacity="0.56"/>
<path d="M4.69336 488.238C4.69336 486.518 3.29846 485.123 1.57776 485.123V485.123V515.123V515.123C3.29846 515.123 4.69336 513.728 4.69336 512.007V488.238Z" fill="#FF8F8F"/>
<line x1="1248.34" y1="5197" x2="1240.5" y2="8.00224" stroke="#B5B4B6" stroke-opacity="0.56"/>
<path d="M1237.74 110.03C1237.74 108.31 1239.13 106.915 1240.85 106.915V106.915V137.595V137.595C1239.13 137.595 1237.74 136.2 1237.74 134.479V110.03Z" fill="#FF8F8F"/>
<path d="M1244.12 260.12C1244.12 258.397 1242.72 257 1241 257V257V287V287C1242.72 287 1244.12 285.603 1244.12 283.88V260.12Z" fill="#D0A2F7"/>
<line x1="421.335" y1="5195" x2="413.5" y2="6.00224" stroke="#B5B4B6" stroke-opacity="0.56"/>
<path d="M417.12 783.12C417.12 781.397 415.723 780 414 780V780V810V810C415.723 810 417.12 808.603 417.12 806.88V783.12Z" fill="#D0A2F7"/>
<path d="M1560 70.1156C1560 68.3949 1561.39 67 1563.12 67V67V97V97C1561.39 97 1560 95.6051 1560 93.8844V70.1156Z" fill="#D0A2F7"/>
<line x1="1570.34" y1="5198" x2="1562.5" y2="9.00126" stroke="#B5B4B6" stroke-opacity="0.56"/>
</svg>
