<svg width="1618" height="978" viewBox="0 0 1618 978" fill="none" xmlns="http://www.w3.org/2000/svg">
<g clip-path="url(#clip0_107_796)">
<rect width="1618" height="978" fill="black"/>
<line x1="392.5" y1="4739.26" x2="392.5" y2="-1138" stroke="#B5B4B6" stroke-opacity="0.56"/>
<line x1="808.5" y1="4745" x2="808.5" y2="-1132.26" stroke="#B5B4B6" stroke-opacity="0.56"/>
<line x1="1224.5" y1="4745" x2="1224.5" y2="-1132.26" stroke="#B5B4B6" stroke-opacity="0.56"/>
<line x1="1540.5" y1="4739.26" x2="1540.5" y2="-1138" stroke="#B5B4B6" stroke-opacity="0.56"/>
<line x1="76.5" y1="4739.26" x2="76.5" y2="-1138" stroke="#B5B4B6" stroke-opacity="0.56"/>
<path d="M80 320C80 318.343 78.6569 317 77 317V317V448V448C78.6569 448 80 446.657 80 445V320Z" fill="#FF8F8F"/>
<path d="M1229 192C1229 189.791 1227.21 188 1225 188V188V263V263C1227.21 263 1229 261.209 1229 259V192Z" fill="#D0A2F7"/>
</g>
<defs>
<clipPath id="clip0_107_796">
<rect width="1618" height="978" fill="white"/>
</clipPath>
</defs>
</svg>
