<svg width="1618" height="885" viewBox="0 0 1618 885" fill="none" xmlns="http://www.w3.org/2000/svg">
<g clip-path="url(#clip0_107_633)">
<rect width="1618" height="885" fill="white"/>
<g filter="url(#filter0_f_107_633)">
<circle cx="-85" cy="722" r="179" fill="url(#paint0_linear_107_633)"/>
</g>
<g opacity="0.7" filter="url(#filter1_f_107_633)">
<ellipse cx="792.5" cy="320" rx="624.5" ry="63" fill="url(#paint1_linear_107_633)"/>
</g>
<g opacity="0.7" filter="url(#filter2_f_107_633)">
<ellipse cx="809" cy="462" rx="726" ry="63" fill="url(#paint2_linear_107_633)"/>
</g>
<line x1="392.5" y1="3877.26" x2="392.5" y2="-2000" stroke="#B5B4B6" stroke-opacity="0.56"/>
<line x1="808.5" y1="3883" x2="808.5" y2="-1994.26" stroke="#B5B4B6" stroke-opacity="0.56"/>
<line x1="1224.5" y1="3883" x2="1224.5" y2="-1994.26" stroke="#B5B4B6" stroke-opacity="0.56"/>
<line x1="1540.5" y1="3877.26" x2="1540.5" y2="-2000" stroke="#B5B4B6" stroke-opacity="0.56"/>
<line x1="76.5" y1="3877.26" x2="76.5" y2="-2000" stroke="#B5B4B6" stroke-opacity="0.56"/>
<path d="M79 485C79 483.343 77.6569 482 76 482V482V552V552C77.6569 552 79 550.657 79 549V485Z" fill="#FF8F8F"/>
<path d="M1228 837C1228 834.791 1226.21 833 1224 833V833V908V908C1226.21 908 1228 906.209 1228 904V837Z" fill="#D0A2F7"/>
<line x1="76" y1="359.5" x2="1540" y2="359.5" stroke="#B5B4B6" stroke-opacity="0.51"/>
</g>
<defs>
<filter id="filter0_f_107_633" x="-384" y="423" width="598" height="598" filterUnits="userSpaceOnUse" color-interpolation-filters="sRGB">
<feFlood flood-opacity="0" result="BackgroundImageFix"/>
<feBlend mode="normal" in="SourceGraphic" in2="BackgroundImageFix" result="shape"/>
<feGaussianBlur stdDeviation="60" result="effect1_foregroundBlur_107_633"/>
</filter>
<filter id="filter1_f_107_633" x="48" y="137" width="1489" height="366" filterUnits="userSpaceOnUse" color-interpolation-filters="sRGB">
<feFlood flood-opacity="0" result="BackgroundImageFix"/>
<feBlend mode="normal" in="SourceGraphic" in2="BackgroundImageFix" result="shape"/>
<feGaussianBlur stdDeviation="60" result="effect1_foregroundBlur_107_633"/>
</filter>
<filter id="filter2_f_107_633" x="-37" y="279" width="1692" height="366" filterUnits="userSpaceOnUse" color-interpolation-filters="sRGB">
<feFlood flood-opacity="0" result="BackgroundImageFix"/>
<feBlend mode="normal" in="SourceGraphic" in2="BackgroundImageFix" result="shape"/>
<feGaussianBlur stdDeviation="60" result="effect1_foregroundBlur_107_633"/>
</filter>
<linearGradient id="paint0_linear_107_633" x1="-85" y1="543" x2="-85" y2="901" gradientUnits="userSpaceOnUse">
<stop stop-color="#FF8F8F"/>
<stop offset="0.99" stop-color="#D0A2F7"/>
</linearGradient>
<linearGradient id="paint1_linear_107_633" x1="792.5" y1="257" x2="792.5" y2="383" gradientUnits="userSpaceOnUse">
<stop stop-color="#FF8F8F"/>
<stop offset="0.99" stop-color="#D0A2F7"/>
</linearGradient>
<linearGradient id="paint2_linear_107_633" x1="809" y1="399" x2="809" y2="525" gradientUnits="userSpaceOnUse">
<stop stop-color="#FF8F8F"/>
<stop offset="0.99" stop-color="#D0A2F7"/>
</linearGradient>
<clipPath id="clip0_107_633">
<rect width="1618" height="885" fill="white"/>
</clipPath>
</defs>
</svg>
