<svg width="1618" height="910" viewBox="0 0 1618 910" fill="none" xmlns="http://www.w3.org/2000/svg">
<g clip-path="url(#clip0_107_633)">
<rect width="1618" height="910" fill="white"/>
<line x1="392.5" y1="4739.26" x2="392.5" y2="-1138" stroke="#B5B4B6" stroke-opacity="0.56"/>
<line x1="808.5" y1="4745" x2="808.5" y2="-1132.26" stroke="#B5B4B6" stroke-opacity="0.56"/>
<line x1="1224.5" y1="4745" x2="1224.5" y2="-1132.26" stroke="#B5B4B6" stroke-opacity="0.56"/>
<line x1="1540.5" y1="4739.26" x2="1540.5" y2="-1138" stroke="#B5B4B6" stroke-opacity="0.56"/>
<line x1="76.5" y1="4739.26" x2="76.5" y2="-1138" stroke="#B5B4B6" stroke-opacity="0.56"/>
<path d="M1229 192C1229 189.791 1227.21 188 1225 188V188V263V263C1227.21 263 1229 261.209 1229 259V192Z" fill="#D0A2F7"/>
<path d="M103.594 737.34C103.594 738.073 103.407 738.713 103.034 739.26C102.66 739.807 102.154 740.233 101.514 740.54C100.887 740.847 100.194 741 99.4337 741H92.6937V726.8H99.7537C100.42 726.8 100.994 726.98 101.474 727.34C101.967 727.687 102.34 728.14 102.594 728.7C102.86 729.247 102.994 729.82 102.994 730.42C102.994 731.113 102.814 731.767 102.454 732.38C102.107 732.98 101.607 733.427 100.954 733.72C101.767 733.96 102.407 734.407 102.874 735.06C103.354 735.7 103.594 736.46 103.594 737.34ZM101.774 737.02C101.774 736.58 101.674 736.173 101.474 735.8C101.287 735.427 101.027 735.127 100.694 734.9C100.374 734.673 100 734.56 99.5737 734.56H94.4937V739.44H99.4337C99.8737 739.44 100.267 739.327 100.614 739.1C100.974 738.873 101.254 738.58 101.454 738.22C101.667 737.847 101.774 737.447 101.774 737.02ZM94.4937 728.36V733.1H99.0137C99.4403 733.1 99.8137 732.993 100.134 732.78C100.467 732.567 100.727 732.28 100.914 731.92C101.114 731.56 101.214 731.167 101.214 730.74C101.214 730.287 101.12 729.887 100.934 729.54C100.76 729.18 100.514 728.893 100.194 728.68C99.887 728.467 99.5337 728.36 99.1337 728.36H94.4937ZM105.012 737.98C105.012 737.313 105.198 736.74 105.572 736.26C105.958 735.767 106.485 735.387 107.152 735.12C107.818 734.853 108.592 734.72 109.472 734.72C109.938 734.72 110.432 734.76 110.952 734.84C111.472 734.907 111.932 735.013 112.332 735.16V734.4C112.332 733.6 112.092 732.973 111.612 732.52C111.132 732.053 110.452 731.82 109.572 731.82C108.998 731.82 108.445 731.927 107.912 732.14C107.392 732.34 106.838 732.633 106.252 733.02L105.612 731.78C106.292 731.313 106.972 730.967 107.652 730.74C108.332 730.5 109.038 730.38 109.772 730.38C111.105 730.38 112.158 730.753 112.932 731.5C113.705 732.233 114.092 733.26 114.092 734.58V739C114.092 739.213 114.132 739.373 114.212 739.48C114.305 739.573 114.452 739.627 114.652 739.64V741C114.478 741.027 114.325 741.047 114.192 741.06C114.072 741.073 113.972 741.08 113.892 741.08C113.478 741.08 113.165 740.967 112.952 740.74C112.752 740.513 112.638 740.273 112.612 740.02L112.572 739.36C112.118 739.947 111.525 740.4 110.792 740.72C110.058 741.04 109.332 741.2 108.612 741.2C107.918 741.2 107.298 741.06 106.752 740.78C106.205 740.487 105.778 740.1 105.472 739.62C105.165 739.127 105.012 738.58 105.012 737.98ZM111.812 738.72C111.972 738.533 112.098 738.347 112.192 738.16C112.285 737.96 112.332 737.793 112.332 737.66V736.36C111.918 736.2 111.485 736.08 111.032 736C110.578 735.907 110.132 735.86 109.692 735.86C108.798 735.86 108.072 736.04 107.512 736.4C106.965 736.747 106.692 737.227 106.692 737.84C106.692 738.173 106.778 738.5 106.952 738.82C107.138 739.127 107.405 739.38 107.752 739.58C108.112 739.78 108.552 739.88 109.072 739.88C109.618 739.88 110.138 739.773 110.632 739.56C111.125 739.333 111.518 739.053 111.812 738.72ZM120.486 741.2C119.619 741.2 118.806 741.06 118.046 740.78C117.286 740.487 116.633 740.053 116.086 739.48L116.766 738.24C117.366 738.8 117.966 739.2 118.566 739.44C119.166 739.68 119.779 739.8 120.406 739.8C121.126 739.8 121.713 739.667 122.166 739.4C122.619 739.12 122.846 738.713 122.846 738.18C122.846 737.793 122.726 737.507 122.486 737.32C122.259 737.133 121.933 736.98 121.506 736.86C121.079 736.727 120.573 736.58 119.986 736.42C119.266 736.207 118.659 735.98 118.166 735.74C117.673 735.5 117.299 735.2 117.046 734.84C116.793 734.48 116.666 734.027 116.666 733.48C116.666 732.813 116.839 732.253 117.186 731.8C117.533 731.333 118.006 730.98 118.606 730.74C119.219 730.5 119.913 730.38 120.686 730.38C121.459 730.38 122.159 730.5 122.786 730.74C123.413 730.98 123.953 731.333 124.406 731.8L123.606 733.02C123.193 732.593 122.739 732.28 122.246 732.08C121.753 731.867 121.199 731.76 120.586 731.76C120.226 731.76 119.873 731.807 119.526 731.9C119.179 731.98 118.893 732.133 118.666 732.36C118.439 732.573 118.326 732.88 118.326 733.28C118.326 733.613 118.413 733.88 118.586 734.08C118.773 734.267 119.039 734.427 119.386 734.56C119.746 734.693 120.179 734.84 120.686 735C121.473 735.227 122.153 735.453 122.726 735.68C123.313 735.907 123.766 736.2 124.086 736.56C124.406 736.92 124.566 737.42 124.566 738.06C124.566 739.047 124.193 739.82 123.446 740.38C122.699 740.927 121.713 741.2 120.486 741.2ZM131.291 741.2C130.505 741.2 129.785 741.06 129.131 740.78C128.491 740.487 127.931 740.093 127.451 739.6C126.985 739.093 126.618 738.513 126.351 737.86C126.098 737.207 125.971 736.513 125.971 735.78C125.971 734.793 126.198 733.893 126.651 733.08C127.105 732.267 127.731 731.613 128.531 731.12C129.345 730.627 130.271 730.38 131.311 730.38C132.365 730.38 133.278 730.633 134.051 731.14C134.838 731.633 135.445 732.287 135.871 733.1C136.311 733.9 136.531 734.767 136.531 735.7C136.531 735.833 136.525 735.967 136.511 736.1C136.511 736.22 136.505 736.313 136.491 736.38H127.831C127.885 737.06 128.071 737.667 128.391 738.2C128.725 738.72 129.151 739.133 129.671 739.44C130.191 739.733 130.751 739.88 131.351 739.88C131.991 739.88 132.591 739.72 133.151 739.4C133.725 739.08 134.118 738.66 134.331 738.14L135.851 738.56C135.625 739.067 135.285 739.52 134.831 739.92C134.391 740.32 133.865 740.633 133.251 740.86C132.651 741.087 131.998 741.2 131.291 741.2ZM127.771 735.16H134.891C134.838 734.48 134.645 733.88 134.311 733.36C133.978 732.84 133.551 732.433 133.031 732.14C132.511 731.847 131.938 731.7 131.311 731.7C130.698 731.7 130.131 731.847 129.611 732.14C129.091 732.433 128.665 732.84 128.331 733.36C128.011 733.88 127.825 734.48 127.771 735.16Z" fill="white"/>
<path d="M92.4177 804V792.64H93.5377V803.008H100.098V804H92.4177ZM104.886 804.16C104.289 804.16 103.734 804.048 103.222 803.824C102.721 803.589 102.284 803.275 101.91 802.88C101.548 802.475 101.265 802.016 101.062 801.504C100.86 800.981 100.758 800.432 100.758 799.856C100.758 799.259 100.86 798.704 101.062 798.192C101.265 797.669 101.553 797.211 101.926 796.816C102.3 796.411 102.737 796.096 103.238 795.872C103.75 795.637 104.305 795.52 104.902 795.52C105.5 795.52 106.049 795.637 106.55 795.872C107.052 796.096 107.489 796.411 107.862 796.816C108.236 797.211 108.524 797.669 108.726 798.192C108.929 798.704 109.03 799.259 109.03 799.856C109.03 800.432 108.929 800.981 108.726 801.504C108.524 802.016 108.236 802.475 107.862 802.88C107.5 803.275 107.062 803.589 106.55 803.824C106.049 804.048 105.494 804.16 104.886 804.16ZM101.862 799.872C101.862 800.491 101.996 801.056 102.262 801.568C102.54 802.069 102.908 802.469 103.366 802.768C103.825 803.056 104.332 803.2 104.886 803.2C105.441 803.2 105.948 803.051 106.406 802.752C106.865 802.453 107.233 802.048 107.51 801.536C107.788 801.013 107.926 800.448 107.926 799.84C107.926 799.221 107.788 798.656 107.51 798.144C107.233 797.632 106.865 797.227 106.406 796.928C105.948 796.629 105.441 796.48 104.886 796.48C104.332 796.48 103.825 796.635 103.366 796.944C102.918 797.253 102.556 797.664 102.278 798.176C102.001 798.677 101.862 799.243 101.862 799.872ZM115.01 796.624C114.285 796.645 113.645 796.848 113.09 797.232C112.546 797.616 112.162 798.144 111.938 798.816V804H110.85V795.664H111.874V797.664C112.162 797.077 112.541 796.603 113.01 796.24C113.49 795.877 113.997 795.675 114.53 795.632C114.637 795.621 114.727 795.616 114.802 795.616C114.887 795.616 114.957 795.621 115.01 795.632V796.624ZM119.794 804.16C119.196 804.16 118.642 804.048 118.13 803.824C117.618 803.589 117.175 803.275 116.802 802.88C116.428 802.475 116.135 802.011 115.922 801.488C115.719 800.965 115.618 800.405 115.618 799.808C115.618 799.029 115.794 798.315 116.146 797.664C116.508 797.013 117.004 796.496 117.634 796.112C118.263 795.717 118.978 795.52 119.778 795.52C120.599 795.52 121.314 795.717 121.922 796.112C122.54 796.507 123.026 797.029 123.378 797.68C123.73 798.32 123.906 799.024 123.906 799.792C123.906 799.877 123.906 799.963 123.906 800.048C123.906 800.123 123.9 800.181 123.89 800.224H116.754C116.807 800.821 116.972 801.355 117.25 801.824C117.538 802.283 117.906 802.651 118.354 802.928C118.812 803.195 119.308 803.328 119.842 803.328C120.386 803.328 120.898 803.189 121.378 802.912C121.868 802.635 122.21 802.272 122.402 801.824L123.346 802.08C123.175 802.475 122.914 802.832 122.562 803.152C122.21 803.472 121.794 803.723 121.314 803.904C120.844 804.075 120.338 804.16 119.794 804.16ZM116.722 799.44H122.882C122.839 798.832 122.674 798.299 122.386 797.84C122.108 797.381 121.74 797.024 121.282 796.768C120.834 796.501 120.338 796.368 119.794 796.368C119.25 796.368 118.754 796.501 118.306 796.768C117.858 797.024 117.49 797.387 117.202 797.856C116.924 798.315 116.764 798.843 116.722 799.44ZM137.984 804H136.896V799.344C136.896 798.373 136.742 797.659 136.432 797.2C136.123 796.741 135.664 796.512 135.056 796.512C134.427 796.512 133.862 796.736 133.36 797.184C132.87 797.632 132.523 798.208 132.32 798.912V804H131.232V799.344C131.232 798.363 131.083 797.648 130.784 797.2C130.486 796.741 130.027 796.512 129.408 796.512C128.79 796.512 128.23 796.731 127.728 797.168C127.227 797.605 126.875 798.181 126.672 798.896V804H125.584V795.664H126.576V797.552C126.928 796.901 127.376 796.4 127.92 796.048C128.475 795.696 129.088 795.52 129.76 795.52C130.454 795.52 131.014 795.717 131.44 796.112C131.867 796.507 132.128 797.024 132.224 797.664C132.608 796.96 133.067 796.427 133.6 796.064C134.144 795.701 134.758 795.52 135.44 795.52C135.91 795.52 136.304 795.605 136.624 795.776C136.955 795.947 137.216 796.192 137.408 796.512C137.611 796.821 137.755 797.2 137.84 797.648C137.936 798.085 137.984 798.576 137.984 799.12V804ZM144.366 804V795.664H145.454V804H144.366ZM144.366 793.92V792.32H145.454V793.92H144.366ZM152.106 804.16C151.413 804.16 150.789 803.979 150.234 803.616C149.69 803.253 149.258 802.805 148.938 802.272V807.408H147.85V795.664H148.826V797.28C149.157 796.757 149.599 796.336 150.154 796.016C150.709 795.685 151.301 795.52 151.93 795.52C152.506 795.52 153.034 795.643 153.514 795.888C153.994 796.123 154.41 796.443 154.762 796.848C155.114 797.253 155.386 797.717 155.578 798.24C155.781 798.752 155.882 799.285 155.882 799.84C155.882 800.619 155.722 801.339 155.402 802C155.093 802.651 154.655 803.173 154.09 803.568C153.525 803.963 152.863 804.16 152.106 804.16ZM151.802 803.2C152.261 803.2 152.671 803.109 153.034 802.928C153.397 802.736 153.706 802.48 153.962 802.16C154.229 801.84 154.431 801.483 154.57 801.088C154.709 800.683 154.778 800.267 154.778 799.84C154.778 799.392 154.698 798.965 154.538 798.56C154.389 798.155 154.17 797.797 153.882 797.488C153.594 797.179 153.263 796.933 152.89 796.752C152.517 796.571 152.111 796.48 151.674 796.48C151.397 796.48 151.109 796.533 150.81 796.64C150.511 796.747 150.223 796.901 149.946 797.104C149.679 797.296 149.455 797.515 149.274 797.76C149.093 798.005 148.981 798.267 148.938 798.544V801.104C149.109 801.499 149.338 801.856 149.626 802.176C149.914 802.485 150.245 802.736 150.618 802.928C151.002 803.109 151.397 803.2 151.802 803.2ZM160.461 804.16C159.778 804.16 159.144 804.048 158.557 803.824C157.97 803.6 157.464 803.259 157.037 802.8L157.485 802.032C157.954 802.469 158.424 802.789 158.893 802.992C159.373 803.184 159.88 803.28 160.413 803.28C161.064 803.28 161.592 803.152 161.997 802.896C162.402 802.629 162.605 802.251 162.605 801.76C162.605 801.429 162.504 801.179 162.301 801.008C162.109 800.827 161.826 800.683 161.453 800.576C161.09 800.459 160.653 800.336 160.141 800.208C159.565 800.048 159.08 799.883 158.685 799.712C158.301 799.531 158.008 799.307 157.805 799.04C157.613 798.763 157.517 798.405 157.517 797.968C157.517 797.424 157.65 796.976 157.917 796.624C158.194 796.261 158.568 795.989 159.037 795.808C159.517 795.616 160.05 795.52 160.637 795.52C161.277 795.52 161.842 795.621 162.333 795.824C162.824 796.027 163.224 796.309 163.533 796.672L163.005 797.408C162.706 797.067 162.349 796.816 161.933 796.656C161.528 796.485 161.074 796.4 160.573 796.4C160.232 796.4 159.906 796.448 159.597 796.544C159.288 796.629 159.032 796.779 158.829 796.992C158.637 797.195 158.541 797.477 158.541 797.84C158.541 798.139 158.616 798.373 158.765 798.544C158.914 798.704 159.138 798.843 159.437 798.96C159.736 799.067 160.104 799.184 160.541 799.312C161.17 799.483 161.72 799.659 162.189 799.84C162.658 800.011 163.021 800.235 163.277 800.512C163.533 800.789 163.661 801.179 163.661 801.68C163.661 802.459 163.368 803.067 162.781 803.504C162.194 803.941 161.421 804.16 160.461 804.16ZM165.379 800.56V795.664H166.467V800.368C166.467 801.317 166.627 802.027 166.947 802.496C167.278 802.965 167.763 803.2 168.403 803.2C168.83 803.2 169.241 803.109 169.635 802.928C170.041 802.736 170.398 802.469 170.707 802.128C171.017 801.776 171.251 801.371 171.411 800.912V795.664H172.499V802.688C172.499 802.837 172.531 802.949 172.595 803.024C172.659 803.088 172.755 803.125 172.883 803.136V804C172.755 804.011 172.654 804.016 172.579 804.016C172.505 804.027 172.435 804.032 172.371 804.032C172.158 804.011 171.971 803.925 171.811 803.776C171.662 803.627 171.582 803.445 171.571 803.232L171.539 802.112C171.177 802.752 170.681 803.253 170.051 803.616C169.433 803.979 168.761 804.16 168.035 804.16C167.161 804.16 166.499 803.856 166.051 803.248C165.603 802.64 165.379 801.744 165.379 800.56ZM187.359 804H186.271V799.344C186.271 798.373 186.117 797.659 185.807 797.2C185.498 796.741 185.039 796.512 184.431 796.512C183.802 796.512 183.237 796.736 182.735 797.184C182.245 797.632 181.898 798.208 181.695 798.912V804H180.607V799.344C180.607 798.363 180.458 797.648 180.159 797.2C179.861 796.741 179.402 796.512 178.783 796.512C178.165 796.512 177.605 796.731 177.103 797.168C176.602 797.605 176.25 798.181 176.047 798.896V804H174.959V795.664H175.951V797.552C176.303 796.901 176.751 796.4 177.295 796.048C177.85 795.696 178.463 795.52 179.135 795.52C179.829 795.52 180.389 795.717 180.815 796.112C181.242 796.507 181.503 797.024 181.599 797.664C181.983 796.96 182.442 796.427 182.975 796.064C183.519 795.701 184.133 795.52 184.815 795.52C185.285 795.52 185.679 795.605 185.999 795.776C186.33 795.947 186.591 796.192 186.783 796.512C186.986 796.821 187.13 797.2 187.215 797.648C187.311 798.085 187.359 798.576 187.359 799.12V804ZM193.181 799.856C193.181 799.067 193.341 798.347 193.661 797.696C193.991 797.035 194.445 796.507 195.021 796.112C195.597 795.717 196.253 795.52 196.989 795.52C197.682 795.52 198.301 795.707 198.845 796.08C199.399 796.443 199.831 796.885 200.141 797.408V792.32H201.229V802.688C201.229 802.837 201.261 802.949 201.325 803.024C201.389 803.088 201.485 803.125 201.613 803.136V804C201.399 804.032 201.234 804.043 201.117 804.032C200.893 804.021 200.695 803.931 200.525 803.76C200.354 803.589 200.269 803.403 200.269 803.2V802.384C199.938 802.928 199.49 803.36 198.925 803.68C198.359 804 197.773 804.16 197.165 804.16C196.589 804.16 196.055 804.043 195.565 803.808C195.085 803.573 194.663 803.253 194.301 802.848C193.949 802.443 193.671 801.984 193.469 801.472C193.277 800.949 193.181 800.411 193.181 799.856ZM200.141 801.136V798.56C200.002 798.176 199.778 797.829 199.469 797.52C199.159 797.2 198.807 796.949 198.413 796.768C198.029 796.576 197.645 796.48 197.261 796.48C196.813 796.48 196.407 796.576 196.045 796.768C195.682 796.949 195.367 797.2 195.101 797.52C194.845 797.84 194.647 798.203 194.509 798.608C194.37 799.013 194.301 799.429 194.301 799.856C194.301 800.304 194.375 800.731 194.525 801.136C194.685 801.541 194.909 801.904 195.197 802.224C195.485 802.533 195.815 802.773 196.189 802.944C196.562 803.115 196.967 803.2 197.405 803.2C197.682 803.2 197.97 803.147 198.269 803.04C198.567 802.933 198.85 802.789 199.117 802.608C199.394 802.416 199.623 802.192 199.805 801.936C199.986 801.68 200.098 801.413 200.141 801.136ZM207.246 804.16C206.648 804.16 206.094 804.048 205.582 803.824C205.08 803.589 204.643 803.275 204.27 802.88C203.907 802.475 203.624 802.016 203.422 801.504C203.219 800.981 203.118 800.432 203.118 799.856C203.118 799.259 203.219 798.704 203.422 798.192C203.624 797.669 203.912 797.211 204.286 796.816C204.659 796.411 205.096 796.096 205.598 795.872C206.11 795.637 206.664 795.52 207.262 795.52C207.859 795.52 208.408 795.637 208.91 795.872C209.411 796.096 209.848 796.411 210.222 796.816C210.595 797.211 210.883 797.669 211.086 798.192C211.288 798.704 211.39 799.259 211.39 799.856C211.39 800.432 211.288 800.981 211.086 801.504C210.883 802.016 210.595 802.475 210.222 802.88C209.859 803.275 209.422 803.589 208.91 803.824C208.408 804.048 207.854 804.16 207.246 804.16ZM204.222 799.872C204.222 800.491 204.355 801.056 204.622 801.568C204.899 802.069 205.267 802.469 205.726 802.768C206.184 803.056 206.691 803.2 207.246 803.2C207.8 803.2 208.307 803.051 208.766 802.752C209.224 802.453 209.592 802.048 209.87 801.536C210.147 801.013 210.286 800.448 210.286 799.84C210.286 799.221 210.147 798.656 209.87 798.144C209.592 797.632 209.224 797.227 208.766 796.928C208.307 796.629 207.8 796.48 207.246 796.48C206.691 796.48 206.184 796.635 205.726 796.944C205.278 797.253 204.915 797.664 204.638 798.176C204.36 798.677 204.222 799.243 204.222 799.872ZM213.257 792.32H214.345V802.112C214.345 802.528 214.42 802.8 214.569 802.928C214.719 803.056 214.9 803.12 215.113 803.12C215.305 803.12 215.497 803.099 215.689 803.056C215.881 803.013 216.047 802.971 216.185 802.928L216.377 803.808C216.175 803.893 215.924 803.963 215.625 804.016C215.337 804.069 215.087 804.096 214.873 804.096C214.383 804.096 213.988 803.952 213.689 803.664C213.401 803.376 213.257 802.981 213.257 802.48V792.32ZM221.121 804.16C220.523 804.16 219.969 804.048 219.457 803.824C218.955 803.589 218.518 803.275 218.145 802.88C217.782 802.475 217.499 802.016 217.297 801.504C217.094 800.981 216.993 800.432 216.993 799.856C216.993 799.259 217.094 798.704 217.297 798.192C217.499 797.669 217.787 797.211 218.161 796.816C218.534 796.411 218.971 796.096 219.473 795.872C219.985 795.637 220.539 795.52 221.137 795.52C221.734 795.52 222.283 795.637 222.785 795.872C223.286 796.096 223.723 796.411 224.097 796.816C224.47 797.211 224.758 797.669 224.961 798.192C225.163 798.704 225.265 799.259 225.265 799.856C225.265 800.432 225.163 800.981 224.961 801.504C224.758 802.016 224.47 802.475 224.097 802.88C223.734 803.275 223.297 803.589 222.785 803.824C222.283 804.048 221.729 804.16 221.121 804.16ZM218.097 799.872C218.097 800.491 218.23 801.056 218.497 801.568C218.774 802.069 219.142 802.469 219.601 802.768C220.059 803.056 220.566 803.2 221.121 803.2C221.675 803.2 222.182 803.051 222.641 802.752C223.099 802.453 223.467 802.048 223.745 801.536C224.022 801.013 224.161 800.448 224.161 799.84C224.161 799.221 224.022 798.656 223.745 798.144C223.467 797.632 223.099 797.227 222.641 796.928C222.182 796.629 221.675 796.48 221.121 796.48C220.566 796.48 220.059 796.635 219.601 796.944C219.153 797.253 218.79 797.664 218.513 798.176C218.235 798.677 218.097 799.243 218.097 799.872ZM231.244 796.624C230.519 796.645 229.879 796.848 229.324 797.232C228.78 797.616 228.396 798.144 228.172 798.816V804H227.084V795.664H228.108V797.664C228.396 797.077 228.775 796.603 229.244 796.24C229.724 795.877 230.231 795.675 230.764 795.632C230.871 795.621 230.962 795.616 231.036 795.616C231.122 795.616 231.191 795.621 231.244 795.632V796.624ZM239.133 804.16C238.45 804.16 237.815 804.048 237.229 803.824C236.642 803.6 236.135 803.259 235.709 802.8L236.157 802.032C236.626 802.469 237.095 802.789 237.565 802.992C238.045 803.184 238.551 803.28 239.085 803.28C239.735 803.28 240.263 803.152 240.669 802.896C241.074 802.629 241.277 802.251 241.277 801.76C241.277 801.429 241.175 801.179 240.973 801.008C240.781 800.827 240.498 800.683 240.125 800.576C239.762 800.459 239.325 800.336 238.813 800.208C238.237 800.048 237.751 799.883 237.357 799.712C236.973 799.531 236.679 799.307 236.477 799.04C236.285 798.763 236.189 798.405 236.189 797.968C236.189 797.424 236.322 796.976 236.589 796.624C236.866 796.261 237.239 795.989 237.709 795.808C238.189 795.616 238.722 795.52 239.309 795.52C239.949 795.52 240.514 795.621 241.005 795.824C241.495 796.027 241.895 796.309 242.205 796.672L241.677 797.408C241.378 797.067 241.021 796.816 240.605 796.656C240.199 796.485 239.746 796.4 239.245 796.4C238.903 796.4 238.578 796.448 238.269 796.544C237.959 796.629 237.703 796.779 237.501 796.992C237.309 797.195 237.213 797.477 237.213 797.84C237.213 798.139 237.287 798.373 237.437 798.544C237.586 798.704 237.81 798.843 238.109 798.96C238.407 799.067 238.775 799.184 239.213 799.312C239.842 799.483 240.391 799.659 240.861 799.84C241.33 800.011 241.693 800.235 241.949 800.512C242.205 800.789 242.333 801.179 242.333 801.68C242.333 802.459 242.039 803.067 241.453 803.504C240.866 803.941 240.093 804.16 239.133 804.16ZM244.131 804V795.664H245.219V804H244.131ZM244.131 793.92V792.32H245.219V793.92H244.131ZM251.616 803.6C251.53 803.632 251.397 803.691 251.216 803.776C251.034 803.861 250.816 803.936 250.56 804C250.304 804.064 250.026 804.096 249.728 804.096C249.418 804.096 249.125 804.037 248.848 803.92C248.581 803.803 248.368 803.627 248.208 803.392C248.048 803.147 247.968 802.848 247.968 802.496V796.528H246.816V795.664H247.968V792.848H249.056V795.664H250.976V796.528H249.056V802.192C249.077 802.491 249.184 802.715 249.376 802.864C249.578 803.013 249.808 803.088 250.064 803.088C250.362 803.088 250.634 803.04 250.88 802.944C251.125 802.837 251.274 802.763 251.328 802.72L251.616 803.6ZM256.381 801.6C256.381 801.077 256.53 800.629 256.829 800.256C257.128 799.872 257.538 799.579 258.061 799.376C258.594 799.163 259.208 799.056 259.901 799.056C260.306 799.056 260.728 799.088 261.165 799.152C261.602 799.216 261.992 799.312 262.333 799.44V798.736C262.333 798.032 262.125 797.472 261.709 797.056C261.293 796.64 260.717 796.432 259.981 796.432C259.533 796.432 259.09 796.517 258.653 796.688C258.226 796.848 257.778 797.088 257.309 797.408L256.893 796.64C257.437 796.267 257.97 795.989 258.493 795.808C259.016 795.616 259.549 795.52 260.093 795.52C261.117 795.52 261.928 795.813 262.525 796.4C263.122 796.987 263.421 797.797 263.421 798.832V802.688C263.421 802.837 263.453 802.949 263.517 803.024C263.581 803.088 263.682 803.125 263.821 803.136V804C263.704 804.011 263.602 804.021 263.517 804.032C263.432 804.043 263.368 804.043 263.325 804.032C263.058 804.021 262.856 803.936 262.717 803.776C262.578 803.616 262.504 803.445 262.493 803.264L262.477 802.656C262.104 803.136 261.618 803.509 261.021 803.776C260.424 804.032 259.816 804.16 259.197 804.16C258.664 804.16 258.178 804.048 257.741 803.824C257.314 803.589 256.978 803.28 256.733 802.896C256.498 802.501 256.381 802.069 256.381 801.6ZM261.965 802.24C262.082 802.091 262.173 801.947 262.237 801.808C262.301 801.669 262.333 801.547 262.333 801.44V800.224C261.97 800.085 261.592 799.979 261.197 799.904C260.813 799.829 260.424 799.792 260.029 799.792C259.25 799.792 258.621 799.947 258.141 800.256C257.661 800.565 257.421 800.987 257.421 801.52C257.421 801.829 257.501 802.123 257.661 802.4C257.821 802.667 258.056 802.891 258.365 803.072C258.674 803.243 259.037 803.328 259.453 803.328C259.976 803.328 260.461 803.227 260.909 803.024C261.368 802.821 261.72 802.56 261.965 802.24ZM278.172 804H277.084V799.344C277.084 798.373 276.929 797.659 276.62 797.2C276.31 796.741 275.852 796.512 275.244 796.512C274.614 796.512 274.049 796.736 273.548 797.184C273.057 797.632 272.71 798.208 272.508 798.912V804H271.42V799.344C271.42 798.363 271.27 797.648 270.972 797.2C270.673 796.741 270.214 796.512 269.596 796.512C268.977 796.512 268.417 796.731 267.916 797.168C267.414 797.605 267.062 798.181 266.86 798.896V804H265.772V795.664H266.764V797.552C267.116 796.901 267.564 796.4 268.108 796.048C268.662 795.696 269.276 795.52 269.948 795.52C270.641 795.52 271.201 795.717 271.628 796.112C272.054 796.507 272.316 797.024 272.412 797.664C272.796 796.96 273.254 796.427 273.788 796.064C274.332 795.701 274.945 795.52 275.628 795.52C276.097 795.52 276.492 795.605 276.812 795.776C277.142 795.947 277.404 796.192 277.596 796.512C277.798 796.821 277.942 797.2 278.028 797.648C278.124 798.085 278.172 798.576 278.172 799.12V804ZM284.075 804.16C283.478 804.16 282.923 804.048 282.411 803.824C281.899 803.589 281.456 803.275 281.083 802.88C280.71 802.475 280.416 802.011 280.203 801.488C280 800.965 279.899 800.405 279.899 799.808C279.899 799.029 280.075 798.315 280.427 797.664C280.79 797.013 281.286 796.496 281.915 796.112C282.544 795.717 283.259 795.52 284.059 795.52C284.88 795.52 285.595 795.717 286.203 796.112C286.822 796.507 287.307 797.029 287.659 797.68C288.011 798.32 288.187 799.024 288.187 799.792C288.187 799.877 288.187 799.963 288.187 800.048C288.187 800.123 288.182 800.181 288.171 800.224H281.035C281.088 800.821 281.254 801.355 281.531 801.824C281.819 802.283 282.187 802.651 282.635 802.928C283.094 803.195 283.59 803.328 284.123 803.328C284.667 803.328 285.179 803.189 285.659 802.912C286.15 802.635 286.491 802.272 286.683 801.824L287.627 802.08C287.456 802.475 287.195 802.832 286.843 803.152C286.491 803.472 286.075 803.723 285.595 803.904C285.126 804.075 284.619 804.16 284.075 804.16ZM281.003 799.44H287.163C287.12 798.832 286.955 798.299 286.667 797.84C286.39 797.381 286.022 797.024 285.563 796.768C285.115 796.501 284.619 796.368 284.075 796.368C283.531 796.368 283.035 796.501 282.587 796.768C282.139 797.024 281.771 797.387 281.483 797.856C281.206 798.315 281.046 798.843 281.003 799.44ZM293.787 803.6C293.702 803.632 293.569 803.691 293.387 803.776C293.206 803.861 292.987 803.936 292.731 804C292.475 804.064 292.198 804.096 291.899 804.096C291.59 804.096 291.297 804.037 291.019 803.92C290.753 803.803 290.539 803.627 290.379 803.392C290.219 803.147 290.139 802.848 290.139 802.496V796.528H288.987V795.664H290.139V792.848H291.227V795.664H293.147V796.528H291.227V802.192C291.249 802.491 291.355 802.715 291.547 802.864C291.75 803.013 291.979 803.088 292.235 803.088C292.534 803.088 292.806 803.04 293.051 802.944C293.297 802.837 293.446 802.763 293.499 802.72L293.787 803.6ZM95.8097 823.16C95.2017 823.16 94.6417 823.048 94.1297 822.824C93.6283 822.589 93.1857 822.269 92.8017 821.864C92.4283 821.459 92.135 820.995 91.9217 820.472C91.719 819.949 91.6177 819.395 91.6177 818.808C91.6177 818.019 91.7937 817.299 92.1457 816.648C92.4977 815.997 92.9883 815.48 93.6177 815.096C94.247 814.712 94.9723 814.52 95.7937 814.52C96.5723 814.52 97.2603 814.701 97.8577 815.064C98.455 815.416 98.8977 815.896 99.1857 816.504L98.1297 816.84C97.895 816.413 97.5643 816.083 97.1377 815.848C96.7217 815.603 96.2577 815.48 95.7457 815.48C95.191 815.48 94.6843 815.624 94.2257 815.912C93.767 816.2 93.399 816.595 93.1217 817.096C92.855 817.597 92.7217 818.168 92.7217 818.808C92.7217 819.437 92.8603 820.008 93.1377 820.52C93.415 821.032 93.783 821.443 94.2417 821.752C94.7003 822.051 95.207 822.2 95.7617 822.2C96.1243 822.2 96.471 822.136 96.8017 822.008C97.143 821.88 97.4363 821.709 97.6817 821.496C97.9377 821.272 98.1083 821.032 98.1937 820.776L99.2657 821.096C99.1163 821.491 98.8657 821.848 98.5137 822.168C98.1723 822.477 97.767 822.723 97.2977 822.904C96.839 823.075 96.343 823.16 95.8097 823.16ZM104.449 823.16C103.851 823.16 103.297 823.048 102.785 822.824C102.283 822.589 101.846 822.275 101.473 821.88C101.11 821.475 100.827 821.016 100.625 820.504C100.422 819.981 100.321 819.432 100.321 818.856C100.321 818.259 100.422 817.704 100.625 817.192C100.827 816.669 101.115 816.211 101.489 815.816C101.862 815.411 102.299 815.096 102.801 814.872C103.313 814.637 103.867 814.52 104.465 814.52C105.062 814.52 105.611 814.637 106.113 814.872C106.614 815.096 107.051 815.411 107.425 815.816C107.798 816.211 108.086 816.669 108.289 817.192C108.491 817.704 108.593 818.259 108.593 818.856C108.593 819.432 108.491 819.981 108.289 820.504C108.086 821.016 107.798 821.475 107.425 821.88C107.062 822.275 106.625 822.589 106.113 822.824C105.611 823.048 105.057 823.16 104.449 823.16ZM101.425 818.872C101.425 819.491 101.558 820.056 101.825 820.568C102.102 821.069 102.47 821.469 102.929 821.768C103.387 822.056 103.894 822.2 104.449 822.2C105.003 822.2 105.51 822.051 105.969 821.752C106.427 821.453 106.795 821.048 107.073 820.536C107.35 820.013 107.489 819.448 107.489 818.84C107.489 818.221 107.35 817.656 107.073 817.144C106.795 816.632 106.427 816.227 105.969 815.928C105.51 815.629 105.003 815.48 104.449 815.48C103.894 815.48 103.387 815.635 102.929 815.944C102.481 816.253 102.118 816.664 101.841 817.176C101.563 817.677 101.425 818.243 101.425 818.872ZM117.42 823H116.332V818.344C116.332 817.363 116.188 816.648 115.9 816.2C115.612 815.741 115.159 815.512 114.54 815.512C114.114 815.512 113.692 815.619 113.276 815.832C112.86 816.035 112.492 816.317 112.172 816.68C111.863 817.032 111.639 817.437 111.5 817.896V823H110.412V814.664H111.404V816.552C111.628 816.147 111.922 815.795 112.284 815.496C112.647 815.187 113.058 814.947 113.516 814.776C113.975 814.605 114.45 814.52 114.94 814.52C115.399 814.52 115.788 814.605 116.108 814.776C116.428 814.947 116.684 815.192 116.876 815.512C117.068 815.821 117.207 816.2 117.292 816.648C117.378 817.085 117.42 817.576 117.42 818.12V823ZM122.477 823.16C121.794 823.16 121.159 823.048 120.573 822.824C119.986 822.6 119.479 822.259 119.053 821.8L119.501 821.032C119.97 821.469 120.439 821.789 120.909 821.992C121.389 822.184 121.895 822.28 122.429 822.28C123.079 822.28 123.607 822.152 124.013 821.896C124.418 821.629 124.621 821.251 124.621 820.76C124.621 820.429 124.519 820.179 124.317 820.008C124.125 819.827 123.842 819.683 123.469 819.576C123.106 819.459 122.669 819.336 122.157 819.208C121.581 819.048 121.095 818.883 120.701 818.712C120.317 818.531 120.023 818.307 119.821 818.04C119.629 817.763 119.533 817.405 119.533 816.968C119.533 816.424 119.666 815.976 119.933 815.624C120.21 815.261 120.583 814.989 121.053 814.808C121.533 814.616 122.066 814.52 122.653 814.52C123.293 814.52 123.858 814.621 124.349 814.824C124.839 815.027 125.239 815.309 125.549 815.672L125.021 816.408C124.722 816.067 124.365 815.816 123.949 815.656C123.543 815.485 123.09 815.4 122.589 815.4C122.247 815.4 121.922 815.448 121.613 815.544C121.303 815.629 121.047 815.779 120.845 815.992C120.653 816.195 120.557 816.477 120.557 816.84C120.557 817.139 120.631 817.373 120.781 817.544C120.93 817.704 121.154 817.843 121.453 817.96C121.751 818.067 122.119 818.184 122.557 818.312C123.186 818.483 123.735 818.659 124.205 818.84C124.674 819.011 125.037 819.235 125.293 819.512C125.549 819.789 125.677 820.179 125.677 820.68C125.677 821.459 125.383 822.067 124.797 822.504C124.21 822.941 123.437 823.16 122.477 823.16ZM131.075 823.16C130.478 823.16 129.923 823.048 129.411 822.824C128.899 822.589 128.456 822.275 128.083 821.88C127.71 821.475 127.416 821.011 127.203 820.488C127 819.965 126.899 819.405 126.899 818.808C126.899 818.029 127.075 817.315 127.427 816.664C127.79 816.013 128.286 815.496 128.915 815.112C129.544 814.717 130.259 814.52 131.059 814.52C131.88 814.52 132.595 814.717 133.203 815.112C133.822 815.507 134.307 816.029 134.659 816.68C135.011 817.32 135.187 818.024 135.187 818.792C135.187 818.877 135.187 818.963 135.187 819.048C135.187 819.123 135.182 819.181 135.171 819.224H128.035C128.088 819.821 128.254 820.355 128.531 820.824C128.819 821.283 129.187 821.651 129.635 821.928C130.094 822.195 130.59 822.328 131.123 822.328C131.667 822.328 132.179 822.189 132.659 821.912C133.15 821.635 133.491 821.272 133.683 820.824L134.627 821.08C134.456 821.475 134.195 821.832 133.843 822.152C133.491 822.472 133.075 822.723 132.595 822.904C132.126 823.075 131.619 823.16 131.075 823.16ZM128.003 818.44H134.163C134.12 817.832 133.955 817.299 133.667 816.84C133.39 816.381 133.022 816.024 132.563 815.768C132.115 815.501 131.619 815.368 131.075 815.368C130.531 815.368 130.035 815.501 129.587 815.768C129.139 816.024 128.771 816.387 128.483 816.856C128.206 817.315 128.046 817.843 128.003 818.44ZM140.482 823.16C139.874 823.16 139.314 823.048 138.802 822.824C138.3 822.589 137.858 822.269 137.474 821.864C137.1 821.459 136.807 820.995 136.594 820.472C136.391 819.949 136.29 819.395 136.29 818.808C136.29 818.019 136.466 817.299 136.818 816.648C137.17 815.997 137.66 815.48 138.29 815.096C138.919 814.712 139.644 814.52 140.466 814.52C141.244 814.52 141.932 814.701 142.53 815.064C143.127 815.416 143.57 815.896 143.858 816.504L142.802 816.84C142.567 816.413 142.236 816.083 141.81 815.848C141.394 815.603 140.93 815.48 140.418 815.48C139.863 815.48 139.356 815.624 138.898 815.912C138.439 816.2 138.071 816.595 137.794 817.096C137.527 817.597 137.394 818.168 137.394 818.808C137.394 819.437 137.532 820.008 137.81 820.52C138.087 821.032 138.455 821.443 138.914 821.752C139.372 822.051 139.879 822.2 140.434 822.2C140.796 822.2 141.143 822.136 141.474 822.008C141.815 821.88 142.108 821.709 142.354 821.496C142.61 821.272 142.78 821.032 142.866 820.776L143.938 821.096C143.788 821.491 143.538 821.848 143.186 822.168C142.844 822.477 142.439 822.723 141.97 822.904C141.511 823.075 141.015 823.16 140.482 823.16ZM149.647 822.6C149.561 822.632 149.428 822.691 149.247 822.776C149.065 822.861 148.847 822.936 148.591 823C148.335 823.064 148.057 823.096 147.759 823.096C147.449 823.096 147.156 823.037 146.879 822.92C146.612 822.803 146.399 822.627 146.239 822.392C146.079 822.147 145.999 821.848 145.999 821.496V815.528H144.847V814.664H145.999V811.848H147.087V814.664H149.007V815.528H147.087V821.192C147.108 821.491 147.215 821.715 147.407 821.864C147.609 822.013 147.839 822.088 148.095 822.088C148.393 822.088 148.665 822.04 148.911 821.944C149.156 821.837 149.305 821.763 149.359 821.72L149.647 822.6ZM154.466 823.16C153.868 823.16 153.314 823.048 152.802 822.824C152.29 822.589 151.847 822.275 151.474 821.88C151.1 821.475 150.807 821.011 150.594 820.488C150.391 819.965 150.29 819.405 150.29 818.808C150.29 818.029 150.466 817.315 150.818 816.664C151.18 816.013 151.676 815.496 152.306 815.112C152.935 814.717 153.65 814.52 154.45 814.52C155.271 814.52 155.986 814.717 156.594 815.112C157.212 815.507 157.698 816.029 158.05 816.68C158.402 817.32 158.578 818.024 158.578 818.792C158.578 818.877 158.578 818.963 158.578 819.048C158.578 819.123 158.572 819.181 158.562 819.224H151.426C151.479 819.821 151.644 820.355 151.922 820.824C152.21 821.283 152.578 821.651 153.026 821.928C153.484 822.195 153.98 822.328 154.514 822.328C155.058 822.328 155.57 822.189 156.05 821.912C156.54 821.635 156.882 821.272 157.074 820.824L158.018 821.08C157.847 821.475 157.586 821.832 157.234 822.152C156.882 822.472 156.466 822.723 155.986 822.904C155.516 823.075 155.01 823.16 154.466 823.16ZM151.394 818.44H157.554C157.511 817.832 157.346 817.299 157.058 816.84C156.78 816.381 156.412 816.024 155.954 815.768C155.506 815.501 155.01 815.368 154.466 815.368C153.922 815.368 153.426 815.501 152.978 815.768C152.53 816.024 152.162 816.387 151.874 816.856C151.596 817.315 151.436 817.843 151.394 818.44ZM164.178 822.6C164.093 822.632 163.959 822.691 163.778 822.776C163.597 822.861 163.378 822.936 163.122 823C162.866 823.064 162.589 823.096 162.29 823.096C161.981 823.096 161.687 823.037 161.41 822.92C161.143 822.803 160.93 822.627 160.77 822.392C160.61 822.147 160.53 821.848 160.53 821.496V815.528H159.378V814.664H160.53V811.848H161.618V814.664H163.538V815.528H161.618V821.192C161.639 821.491 161.746 821.715 161.938 821.864C162.141 822.013 162.37 822.088 162.626 822.088C162.925 822.088 163.197 822.04 163.442 821.944C163.687 821.837 163.837 821.763 163.89 821.72L164.178 822.6ZM165.457 819.56V814.664H166.545V819.368C166.545 820.317 166.705 821.027 167.025 821.496C167.356 821.965 167.841 822.2 168.481 822.2C168.908 822.2 169.319 822.109 169.713 821.928C170.119 821.736 170.476 821.469 170.785 821.128C171.095 820.776 171.329 820.371 171.489 819.912V814.664H172.577V821.688C172.577 821.837 172.609 821.949 172.673 822.024C172.737 822.088 172.833 822.125 172.961 822.136V823C172.833 823.011 172.732 823.016 172.657 823.016C172.583 823.027 172.513 823.032 172.449 823.032C172.236 823.011 172.049 822.925 171.889 822.776C171.74 822.627 171.66 822.445 171.649 822.232L171.617 821.112C171.255 821.752 170.759 822.253 170.129 822.616C169.511 822.979 168.839 823.16 168.113 823.16C167.239 823.16 166.577 822.856 166.129 822.248C165.681 821.64 165.457 820.744 165.457 819.56ZM179.197 815.624C178.472 815.645 177.832 815.848 177.277 816.232C176.733 816.616 176.349 817.144 176.125 817.816V823H175.037V814.664H176.061V816.664C176.349 816.077 176.728 815.603 177.197 815.24C177.677 814.877 178.184 814.675 178.717 814.632C178.824 814.621 178.915 814.616 178.989 814.616C179.075 814.616 179.144 814.621 179.197 814.632V815.624ZM178.924 823V821.432H179.868V823H178.924Z" fill="white"/>
</g>
<defs>
<clipPath id="clip0_107_633">
<rect width="1618" height="910" fill="white"/>
</clipPath>
</defs>
</svg>
